<svg width="711" height="728" viewBox="0 0 711 728" fill="none" xmlns="http://www.w3.org/2000/svg">
<g filter="url(#filter0_d_190_3)">
<path fill-rule="evenodd" clip-rule="evenodd" d="M377.628 712.919C388.661 705.067 385.906 700.379 391.013 690.979C396.142 681.565 391.81 677.654 400.483 669.418C409.148 661.196 398.905 655.708 409.93 650.612C420.971 645.516 419.392 655.323 410.332 666.677C401.272 678.055 399.694 681.18 411.508 672.558C423.323 663.937 427.656 651.782 434.356 638.064C441.049 624.347 446.178 620.043 452.082 619.251C457.978 618.473 457.978 603.978 457.196 593.793C456.407 583.586 453.258 574.187 457.583 567.521C461.916 560.862 457.583 554.603 463.107 554.603C468.624 554.603 476.895 546.359 485.553 537.738C494.226 529.124 499.743 528.338 508.795 527.546C517.855 526.76 512.741 523.62 518.645 522.065C524.548 520.502 528.494 515.006 532.432 511.473C536.37 507.954 552.518 511.873 561.972 511.873C571.435 511.873 577.725 512.658 577.725 506.784C577.725 500.903 582.058 496.192 587.582 496.192C593.084 496.192 595.459 494.644 595.459 486.793C595.459 478.964 597.819 474.253 602.538 470.72C607.273 467.202 608.062 459.365 609.641 454.269C611.219 449.173 616.326 452.291 616.326 444.87C616.326 437.418 619.088 429.197 619.088 423.308C619.088 417.442 625.386 418.205 628.148 413.894C630.91 409.591 625.781 404.117 630.114 391.955C634.446 379.807 630.114 368.445 630.114 357.476C630.114 346.499 630.113 335.129 634.059 331.588C638.005 328.07 636.032 326.115 632.883 324.529C629.726 322.974 633.278 318.663 636.032 319.456C638.787 320.226 641.936 326.115 647.065 322.974C652.187 319.833 656.907 306.508 661.24 295.539C665.58 284.562 672.667 284.962 678.176 282.614C683.701 280.251 695.523 266.933 702.997 247.72C710.479 228.521 702.595 209.715 699.446 196.397C696.289 183.05 691.956 185.798 684.095 186.19C676.211 186.59 661.24 184.628 641.549 163.458C621.858 142.289 602.546 143.86 589.555 147.393C576.549 150.926 563.164 141.119 554.491 139.164C545.825 137.201 537.554 148.171 531.256 150.526C524.943 152.874 534.405 141.119 534.8 133.675C535.194 126.224 511.163 115.647 493.042 108.596C474.93 101.537 467.046 105.07 467.046 116.432C467.046 127.802 459.958 112.899 454.442 125.069C448.918 137.209 438.674 129.364 445.382 125.454C452.074 121.536 458.372 112.506 460.74 105.077C463.107 97.6335 434.743 91.7297 424.901 95.6706C415.044 99.5888 421.342 113.699 413.474 109.388C405.59 105.077 411.895 94.4778 418.201 94.8854C424.507 95.278 431.602 82.3455 435.927 72.9387C440.26 63.5244 428.445 61.9465 421.35 54.1251C414.346 46.3717 415.796 23.7606 408.61 20.1821C400.893 27.777 390.535 39.645 387.613 48.3572C383.873 59.5004 379.077 53.121 368.947 56.3221C358.817 59.5004 354.013 55.2349 351.35 51.0147C348.687 46.7416 338.541 51.0147 331.621 50.4787C324.685 49.9427 328.942 58.9644 324.147 61.637C319.351 64.2793 307.081 56.3296 302.817 61.1085C298.552 65.8799 295.889 61.1085 293.756 65.3514C291.617 69.5867 284.15 66.9444 282.018 69.5867C279.878 72.2442 272.426 73.8296 262.812 63.2149C253.221 52.6303 254.814 35.1001 259.086 31.9217C263.343 28.7434 263.343 19.714 257.478 17.049C251.612 14.4142 257.478 3.2559 250.026 2.20651C242.552 1.14957 243.622 10.6923 238.826 12.2777C234.031 13.8706 222.292 21.843 216.957 20.7785C211.623 19.7065 204.687 21.843 204.687 27.6638C204.687 33.5072 198.829 31.9142 197.76 27.1504C196.697 22.3715 185.497 25.0139 182.303 21.843C179.1 18.6571 164.167 20.2425 170.564 23.9569C176.961 27.6638 177.499 31.3782 177.499 37.2216C177.499 43.065 182.303 41.4569 182.303 48.3723C182.303 55.25 187.629 50.4862 191.363 50.4862C195.096 50.4862 195.096 56.8732 189.238 57.9075C183.373 58.972 180.702 62.1428 179.1 67.4804C177.499 72.7802 172.173 69.0507 167.377 73.3011C162.574 77.5591 158.309 81.7944 155.099 79.6654C151.905 77.5666 149.241 79.1521 145.508 81.266C141.775 83.3798 140.174 81.266 134.839 77.0231C130.848 73.8371 128.344 66.1667 121.264 59.1834C117.045 61.1765 108.478 64.2567 103.872 64.2567C97.65 64.2567 78.1031 62.8374 77.0407 66.212C75.9784 69.5565 78.4673 75.2187 81.6619 75.9057C84.864 76.6305 91.6098 78.5707 85.2207 83.1685C78.8239 87.7435 73.1329 81.583 73.1329 92.7036C73.1329 103.847 87.4895 111.072 84.5074 121.354C82.967 126.647 80.8575 140.243 80.8575 145.46C80.8575 150.685 78.7708 168.449 74.0434 169.476C69.3161 170.54 65.1123 165.323 58.8066 170.54C52.5009 175.764 44.632 172.624 37.2792 178.392C29.9263 184.122 22.0499 182.031 21.5263 188.833C20.9951 195.627 14.181 199.289 15.7518 205.555C17.3301 211.821 12.5951 210.258 7.86774 214.962C3.14795 219.665 8.39132 222.791 5.23467 226.46C2.07803 230.121 6.28942 235.852 9.96205 241.604C13.6347 247.357 17.8461 251.525 17.3225 256.764C16.7913 261.981 20.9875 264.087 26.2461 263.544C31.497 263.03 27.2856 273.479 35.7008 273.479C44.1008 273.479 52.5009 275.57 54.6103 270.874C56.7122 266.163 62.4868 262.509 62.4868 269.304C62.4868 276.083 60.9085 294.391 66.683 292.3C72.4651 290.209 84.0218 290.707 89.8039 292.806C95.5708 294.897 101.345 292.806 105.026 289.152C108.706 285.505 112.902 285.52 120.247 281.33C127.608 277.133 134.429 271.924 141.274 271.924C148.096 271.924 159.652 267.726 158.066 272.95C156.488 278.182 155.448 297.524 163.848 307.445C172.248 317.372 176.968 321.034 184.852 319.992C192.736 318.935 191.682 323.11 197.464 322.612C203.238 322.091 199.566 328.87 204.824 328.87C210.067 328.87 219.515 329.92 219.515 335.657C219.515 341.418 235.283 336.714 238.963 339.847C242.636 342.973 246.832 345.593 245.785 351.859C244.722 358.14 253.661 362.844 248.418 365.448C243.151 368.06 249.988 373.285 250.512 380.079C251.028 386.866 258.388 389.486 269.945 388.958C281.494 388.459 284.658 389.486 284.658 397.859C284.658 406.201 292.527 407.258 295.153 415.102C297.786 422.931 292.004 431.809 293.058 438.09C293.855 442.907 290.934 448.003 287.648 450.109C291.7 455.251 292.034 457.561 288.399 459.554C283.611 462.204 294.272 469.625 291.609 481.289C288.946 492.984 288.414 495.09 300.684 495.618C312.932 496.154 311.869 499.861 316.134 497.204C320.406 494.546 326.795 506.226 328.396 512.092C329.997 517.912 334.793 531.69 336.925 531.69C339.072 531.69 345.462 525.319 351.858 528.52C357.807 531.471 350.394 551.402 350.181 560.137C354.628 559.979 360.069 559.994 361.867 560.892C365.062 562.5 366.655 583.926 365.069 587.905C363.468 591.861 350.288 595.432 343.512 599.803C336.735 604.174 320.368 619.658 312.78 631.972C308.295 639.272 301.732 645.297 297.118 650.559C299.311 650.876 301.162 650.793 302.407 650.242C305.996 648.641 311.588 648.641 317.575 655.783C323.57 662.94 323.168 668.504 325.558 668.112C327.956 667.696 330.756 658.577 335.536 665.333C340.325 672.075 352.693 677.239 355.486 680.418C358.278 683.596 367.459 685.982 367.459 694.316C367.459 700.281 364.629 711.567 369.326 721.125C371.587 718.196 374.16 715.38 377.628 712.919Z" fill="#B45623"/>
<path fill-rule="evenodd" clip-rule="evenodd" d="M377.628 712.919C388.661 705.067 385.906 700.379 391.013 690.979C396.142 681.565 391.81 677.654 400.483 669.418C409.148 661.196 398.905 655.708 409.93 650.612C420.971 645.516 419.392 655.323 410.332 666.677C401.272 678.055 399.694 681.18 411.508 672.558C423.323 663.937 427.656 651.782 434.356 638.064C441.049 624.347 446.178 620.043 452.082 619.251C457.978 618.473 457.978 603.978 457.196 593.793C456.407 583.586 453.258 574.187 457.583 567.521C461.916 560.862 457.583 554.603 463.107 554.603C468.624 554.603 476.895 546.359 485.553 537.738C494.226 529.124 499.743 528.338 508.795 527.546C517.855 526.76 512.741 523.62 518.645 522.065C524.548 520.502 528.494 515.006 532.432 511.473C536.37 507.954 552.518 511.873 561.972 511.873C571.435 511.873 577.725 512.658 577.725 506.784C577.725 500.903 582.058 496.192 587.582 496.192C593.084 496.192 595.459 494.644 595.459 486.793C595.459 478.964 597.819 474.253 602.538 470.72C607.273 467.202 608.062 459.365 609.641 454.269C611.219 449.173 616.326 452.291 616.326 444.87C616.326 437.418 619.088 429.197 619.088 423.308C619.088 417.442 625.386 418.205 628.148 413.894C630.91 409.591 625.781 404.117 630.114 391.955C634.446 379.807 630.114 368.445 630.114 357.476C630.114 346.499 630.113 335.129 634.059 331.588C638.005 328.07 636.032 326.115 632.883 324.529C629.726 322.974 633.278 318.663 636.032 319.456C638.787 320.226 641.936 326.115 647.065 322.974C652.187 319.833 656.907 306.508 661.24 295.539C665.58 284.562 672.667 284.962 678.176 282.614C683.701 280.251 695.523 266.933 702.997 247.72C710.479 228.521 702.595 209.715 699.446 196.397C696.289 183.05 691.956 185.798 684.095 186.19C676.211 186.59 661.24 184.628 641.549 163.458C621.858 142.289 602.546 143.86 589.555 147.393C576.549 150.926 563.164 141.119 554.491 139.164C545.825 137.201 537.554 148.171 531.256 150.526C524.943 152.874 534.405 141.119 534.8 133.675C535.194 126.224 511.163 115.647 493.042 108.596C474.93 101.537 467.046 105.07 467.046 116.432C467.046 127.802 459.958 112.899 454.442 125.069C448.918 137.209 438.674 129.364 445.382 125.454C452.074 121.536 458.372 112.506 460.74 105.077C463.107 97.6335 434.743 91.7297 424.901 95.6706C415.044 99.5888 421.342 113.699 413.474 109.388C405.59 105.077 411.895 94.4778 418.201 94.8854C424.507 95.278 431.602 82.3455 435.927 72.9387C440.26 63.5244 428.445 61.9465 421.35 54.1251C414.346 46.3717 415.796 23.7606 408.61 20.1821C400.893 27.777 390.535 39.645 387.613 48.3572C383.873 59.5004 379.077 53.121 368.947 56.3221C358.817 59.5004 354.013 55.2349 351.35 51.0147C348.687 46.7416 338.541 51.0147 331.621 50.4787C324.685 49.9427 328.942 58.9644 324.147 61.637C319.351 64.2793 307.081 56.3296 302.817 61.1085C298.552 65.8799 295.889 61.1085 293.756 65.3514C291.617 69.5867 284.15 66.9444 282.018 69.5867C279.878 72.2442 272.426 73.8296 262.812 63.2149C253.221 52.6303 254.814 35.1001 259.086 31.9217C263.343 28.7434 263.343 19.714 257.478 17.049C251.612 14.4142 257.478 3.2559 250.026 2.20651C242.552 1.14957 243.622 10.6923 238.826 12.2777C234.031 13.8706 222.292 21.843 216.957 20.7785C211.623 19.7065 204.687 21.843 204.687 27.6638C204.687 33.5072 198.829 31.9142 197.76 27.1504C196.697 22.3715 185.497 25.0139 182.303 21.843C179.1 18.6571 164.167 20.2425 170.564 23.9569C176.961 27.6638 177.499 31.3782 177.499 37.2216C177.499 43.065 182.303 41.4569 182.303 48.3723C182.303 55.25 187.629 50.4862 191.363 50.4862C195.096 50.4862 195.096 56.8732 189.238 57.9075C183.373 58.972 180.702 62.1428 179.1 67.4804C177.499 72.7802 172.173 69.0507 167.377 73.3011C162.574 77.5591 158.309 81.7944 155.099 79.6654C151.905 77.5666 149.241 79.1521 145.508 81.266C141.775 83.3798 140.174 81.266 134.839 77.0231C130.848 73.8371 128.344 66.1667 121.264 59.1834C117.045 61.1765 108.478 64.2567 103.872 64.2567C97.65 64.2567 78.1031 62.8374 77.0407 66.212C75.9784 69.5565 78.4673 75.2187 81.6619 75.9057C84.864 76.6305 91.6098 78.5707 85.2207 83.1685C78.8239 87.7435 73.1329 81.583 73.1329 92.7036C73.1329 103.847 87.4895 111.072 84.5074 121.354C82.967 126.647 80.8575 140.243 80.8575 145.46C80.8575 150.685 78.7708 168.449 74.0434 169.476C69.3161 170.54 65.1123 165.323 58.8066 170.54C52.5009 175.764 44.632 172.624 37.2792 178.392C29.9263 184.122 22.0499 182.031 21.5263 188.833C20.9951 195.627 14.181 199.289 15.7518 205.555C17.3301 211.821 12.5951 210.258 7.86774 214.962C3.14795 219.665 8.39132 222.791 5.23467 226.46C2.07803 230.121 6.28942 235.852 9.96205 241.604C13.6347 247.357 17.8461 251.525 17.3225 256.764C16.7913 261.981 20.9875 264.087 26.2461 263.544C31.497 263.03 27.2856 273.479 35.7008 273.479C44.1008 273.479 52.5009 275.57 54.6103 270.874C56.7122 266.163 62.4868 262.509 62.4868 269.304C62.4868 276.083 60.9085 294.391 66.683 292.3C72.4651 290.209 84.0218 290.707 89.8039 292.806C95.5708 294.897 101.345 292.806 105.026 289.152C108.706 285.505 112.902 285.52 120.247 281.33C127.608 277.133 134.429 271.924 141.274 271.924C148.096 271.924 159.652 267.726 158.066 272.95C156.488 278.182 155.448 297.524 163.848 307.445C172.248 317.372 176.968 321.034 184.852 319.992C192.736 318.935 191.682 323.11 197.464 322.612C203.238 322.091 199.566 328.87 204.824 328.87C210.067 328.87 219.515 329.92 219.515 335.657C219.515 341.418 235.283 336.714 238.963 339.847C242.636 342.973 246.832 345.593 245.785 351.859C244.722 358.14 253.661 362.844 248.418 365.448C243.151 368.06 249.988 373.285 250.512 380.079C251.028 386.866 258.388 389.486 269.945 388.958C281.494 388.459 284.658 389.486 284.658 397.859C284.658 406.201 292.527 407.258 295.153 415.102C297.786 422.931 292.004 431.809 293.058 438.09C293.855 442.907 290.934 448.003 287.648 450.109C291.7 455.251 292.034 457.561 288.399 459.554C283.611 462.204 294.272 469.625 291.609 481.289C288.946 492.984 288.414 495.09 300.684 495.618C312.932 496.154 311.869 499.861 316.134 497.204C320.406 494.546 326.795 506.226 328.396 512.092C329.997 517.912 334.793 531.69 336.925 531.69C339.072 531.69 345.462 525.319 351.858 528.52C357.807 531.471 350.394 551.402 350.181 560.137C354.628 559.979 360.069 559.994 361.867 560.892C365.062 562.5 366.655 583.926 365.069 587.905C363.468 591.861 350.288 595.432 343.512 599.803C336.735 604.174 320.368 619.658 312.78 631.972C308.295 639.272 301.732 645.297 297.118 650.559C299.311 650.876 301.162 650.793 302.407 650.242C305.996 648.641 311.588 648.641 317.575 655.783C323.57 662.94 323.168 668.504 325.558 668.112C327.956 667.696 330.756 658.577 335.536 665.333C340.325 672.075 352.693 677.239 355.486 680.418C358.278 683.596 367.459 685.982 367.459 694.316C367.459 700.281 364.629 711.567 369.326 721.125C371.587 718.196 374.16 715.38 377.628 712.919Z" stroke="#B45623" stroke-width="0.25"/>
</g>
<defs>
<filter id="filter0_d_190_3" x="0" y="0" width="710.25" height="727.36" filterUnits="userSpaceOnUse" color-interpolation-filters="sRGB">
<feFlood flood-opacity="0" result="BackgroundImageFix"/>
<feColorMatrix in="SourceAlpha" type="matrix" values="0 0 0 0 0 0 0 0 0 0 0 0 0 0 0 0 0 0 127 0" result="hardAlpha"/>
<feOffset dy="2"/>
<feGaussianBlur stdDeviation="2"/>
<feColorMatrix type="matrix" values="0 0 0 0 0 0 0 0 0 0 0 0 0 0 0 0 0 0 0.01 0"/>
<feBlend mode="normal" in2="BackgroundImageFix" result="effect1_dropShadow_190_3"/>
<feBlend mode="normal" in="SourceGraphic" in2="effect1_dropShadow_190_3" result="shape"/>
</filter>
</defs>
</svg>
