<svg width="793" height="642" viewBox="0 0 793 642" fill="none" xmlns="http://www.w3.org/2000/svg">
<g filter="url(#filter0_d_190_4)">
<path fill-rule="evenodd" clip-rule="evenodd" d="M130.425 588.504C138.881 593.537 172.984 592.516 235.574 600.567C262.339 604.01 304.858 625.156 333.975 628.357C362.993 631.548 387.374 620.523 414.074 620.523C423.783 628.837 442.133 617.89 452.91 620.044C473.867 624.232 494.93 634.363 509.847 635.098L503.882 620.044L496.6 607.871L501.455 610.305L503.882 595.698L499.028 588.394L513.591 585.959L528.155 564.048L525.727 551.875L542.718 537.267L552.427 503.182L565.123 496.3L559.709 464.228L566.991 471.532L583.981 473.967L588.836 456.925L610.681 449.621L622.817 437.448L620.39 430.144L630.099 422.84L639.808 403.363L649.517 400.928L654.371 383.886L666.508 376.582L668.799 364.47V325.455L681.071 303.544V288.936L673.789 254.851L661.653 240.244L668.799 239.608L681.071 235.375L698.062 242.678L715.052 237.809L731.09 239.608L746.607 230.505L761.17 225.636L768.452 213.463L788.119 207.091C785.534 196.196 780.317 182.859 778.161 172.075C774.829 155.407 775.871 141.457 773.306 125.817C770.376 107.942 756.253 72.8834 753.888 57.6476C747.197 14.5436 743.085 2.13122 743.085 2.13122C738.619 1.09863 594.935 128.823 546.324 223.772C497.782 318.65 357.138 391.709 235.574 369.82C108.119 389.598 81.8724 398.996 50.2363 420.885C38.1001 420.885 46.5879 429.593 40.5273 428.189C30.4846 425.862 11.4004 423.32 4.11865 416.016C13.8276 445.232 27.5345 462.493 42.7057 486.62C51.6643 500.867 56.8533 521.019 66.9781 532.505C81.5637 549.052 98.7454 557.219 110.669 566.962C120.613 575.087 126.16 585.92 130.425 588.504Z" fill="#B45623"/>
<path d="M414.074 620.523C387.374 620.523 362.993 631.548 333.975 628.357M414.074 620.523L333.975 628.357M414.074 620.523C423.783 628.837 442.133 617.89 452.91 620.044C473.867 624.232 494.93 634.363 509.847 635.098L503.882 620.044L496.6 607.871L501.455 610.305L503.882 595.698L499.028 588.394L513.591 585.959L528.155 564.048L525.727 551.875L542.718 537.267L552.427 503.182L565.123 496.3L559.709 464.228L566.991 471.532L583.981 473.967L588.836 456.925L610.681 449.621L622.817 437.448L620.39 430.144L630.099 422.84L639.808 403.363L649.517 400.928L654.371 383.886L666.508 376.582L668.799 364.47V325.455L681.071 303.544V288.936L673.789 254.851L661.653 240.244L668.799 239.608L681.071 235.375L698.062 242.678L715.052 237.809L731.09 239.608L746.607 230.505L761.17 225.636L768.452 213.463L788.119 207.091C785.534 196.196 780.317 182.859 778.161 172.075M333.975 628.357C304.858 625.156 262.339 604.01 235.574 600.567C172.984 592.516 138.881 593.537 130.425 588.504C126.16 585.92 120.613 575.087 110.669 566.962C98.7454 557.219 81.5637 549.052 66.9781 532.505C56.8533 521.019 51.6643 500.867 42.7057 486.62C27.5345 462.493 13.8276 445.232 4.11865 416.016C11.4004 423.32 30.4846 425.862 40.5273 428.189C46.5879 429.593 38.1001 420.885 50.2363 420.885C81.8724 398.996 108.119 389.598 235.574 369.82C357.138 391.709 497.782 318.65 546.324 223.772C594.935 128.823 738.619 1.09863 743.085 2.13122C743.085 2.13122 747.197 14.5436 753.888 57.6476C756.253 72.8834 770.376 107.942 773.306 125.817M778.161 172.075C774.829 155.407 775.871 141.457 773.306 125.817M778.161 172.075L773.306 125.817" stroke="#B45623" stroke-width="0.25"/>
</g>
<defs>
<filter id="filter0_d_190_4" x="0" y="0" width="792.267" height="641.233" filterUnits="userSpaceOnUse" color-interpolation-filters="sRGB">
<feFlood flood-opacity="0" result="BackgroundImageFix"/>
<feColorMatrix in="SourceAlpha" type="matrix" values="0 0 0 0 0 0 0 0 0 0 0 0 0 0 0 0 0 0 127 0" result="hardAlpha"/>
<feOffset dy="2"/>
<feGaussianBlur stdDeviation="2"/>
<feColorMatrix type="matrix" values="0 0 0 0 0 0 0 0 0 0 0 0 0 0 0 0 0 0 0.01 0"/>
<feBlend mode="normal" in2="BackgroundImageFix" result="effect1_dropShadow_190_4"/>
<feBlend mode="normal" in="SourceGraphic" in2="effect1_dropShadow_190_4" result="shape"/>
</filter>
</defs>
</svg>
