<svg width="1037" height="513" viewBox="0 0 1037 513" fill="none" xmlns="http://www.w3.org/2000/svg">
<g filter="url(#filter0_d_190_2)">
<path fill-rule="evenodd" clip-rule="evenodd" d="M1018.07 53.0592C1017.55 47.8374 1001.82 52.0027 994.479 46.2679C987.139 40.5028 974.556 66.6418 971.935 77.6059C969.306 88.5701 949.913 100.583 949.913 100.583C949.913 100.583 893.803 101.104 889.083 101.104C885.811 101.104 872.917 112.181 865.35 118.942C865.584 119.237 865.812 119.538 866.016 119.893C871.69 130.095 851.07 136.351 831.412 137.135C825.367 137.369 820.814 137.988 817.307 138.479C817.996 140.878 818.526 143.519 818.314 145.489C818.163 146.741 816.057 148.288 813.057 149.881C810.049 155.955 785.922 167.674 772.43 174.759C757.484 182.592 737.038 178.676 737.038 166.919C737.038 155.178 748.053 157.517 750.409 163.003C751.295 165.048 753.954 163.561 757.545 160.988C753.81 157.366 753.87 151.578 754.673 147.134C750.166 145.164 757.189 127.635 748.053 124.617C738.614 121.47 727.599 137.935 729.167 127.733C730.743 117.546 744.901 108.936 736.25 95.618C727.599 82.2995 711.873 82.2995 708.721 92.4789C705.578 102.673 694.563 97.9723 690.639 105.805C686.707 113.638 682.768 130.872 685.919 143.421C689.056 155.947 685.132 162.21 673.337 169.266C661.534 176.314 655.36 158.483 659.959 135.581C663.11 119.893 671.761 105.028 663.89 105.028C656.02 105.028 674.117 86.2158 690.631 82.2995C707.146 78.3681 727.599 79.9527 727.599 75.2441C727.599 74.2858 728.349 73.6594 729.599 73.2218C726.236 70.5656 722.493 68.083 719.493 66.2267C719.183 67.2228 718.547 68.166 717.372 68.9659C710.895 73.4633 712.653 61.9029 700.858 61.9029C689.048 61.9029 677.261 72.8671 667.822 68.1887C658.383 63.48 663.102 57.217 654.451 57.217C645.793 57.217 660.746 40.7594 648.156 47.8148C635.574 54.8702 616.696 72.105 608.052 64.2724C599.394 56.4397 591.53 66.6267 585.235 60.3485C578.94 54.0703 607.249 36.8506 620.627 37.6278C623.923 37.8089 626.922 36.3752 629.733 34.119C622.703 31.5534 608.196 25.909 604.371 30.5724C599.651 36.3148 592.841 32.64 589.167 27.954C585.5 23.2529 580.781 29.516 574.486 22.2191C568.191 14.8845 561.903 20.1213 558.229 21.6758C554.563 23.2529 549.843 19.0649 543.018 16.4691C536.207 13.8432 541.45 7.05941 535.677 2.87898C529.912 -1.30144 529.579 10.7871 529.579 10.7871L40.8011 13.413C41.3541 14.2356 41.9071 15.0354 42.5359 15.6919C48.4295 21.9625 43.7101 26.6485 45.6797 34.1039C47.6493 41.5441 46.0736 52.1159 40.1724 52.1159C34.2787 52.1159 33.4909 45.468 37.8089 43.1061C42.1344 40.7594 39.7785 32.142 35.4529 32.142C32.9303 32.142 31.9077 29.1915 32.0137 25.7355C23.9914 27.9464 14.7646 26.9353 4 25.66C4.17423 26.1128 4.34089 26.558 4.37877 27.056C4.77269 31.7496 7.12863 42.3214 13.4238 50.5464C19.7189 58.779 15.3858 63.8724 21.287 67.004C27.1882 70.1355 26.7943 73.667 21.287 72.8671C15.7797 72.0974 19.7113 77.1909 17.7569 88.955C15.7873 100.711 16.1812 124.972 14.9994 132.442C13.8177 139.867 5.15903 152.024 10.28 159.856C15.3858 167.689 18.931 178.653 16.1736 188.448C13.4238 198.242 13.8101 204.105 18.1356 211.553C22.4612 219.001 18.9235 231.927 23.6505 234.666C28.37 237.42 32.6955 242.891 37.021 249.939C41.3466 257.002 45.2782 252.686 46.0584 259.741C46.8463 266.789 46.8463 267.966 53.1338 270.705C59.4365 273.444 55.4973 280.485 55.4973 284.409C55.4973 288.317 63.7545 295.388 73.9812 304.39C84.2004 313.392 75.5494 320.833 83.0187 320.833C90.4956 320.833 97.5709 325.149 105.04 329.85C112.51 334.551 114.873 331.797 119.986 332.974C125.092 334.151 134.539 345.123 136.501 352.563C137.425 356.064 138.629 359.747 140.485 363.716L181.256 358.389C181.256 358.389 193.869 367.187 201.005 368.855C208.149 370.522 246.798 384.746 246.798 384.746L297.212 384.309L303.091 376.793H330.824C330.824 376.793 348.467 393.945 350.99 394.805C353.512 395.628 362.338 403.573 362.338 408.606C362.338 413.625 364.436 417.812 368.64 419.903C372.837 421.993 387.124 431.199 389.223 430.354C391.321 429.539 395.533 413.625 403.086 414.055C410.653 414.462 431.236 420.31 434.599 432.037C437.955 443.763 448.03 453.391 451.401 455.889C454.757 458.394 453.083 465.51 455.606 469.291C458.121 473.056 457.704 480.164 460.636 480.164C463.59 480.164 478.71 489.378 485.43 488.948C487.437 488.834 490.081 490.034 492.808 491.694C493.626 477.704 479.165 475.342 487.68 468.913C497.512 461.458 487.286 455.195 492.005 452.063C496.732 448.932 504.982 445.793 504.982 441.099C504.982 436.398 509.307 436.398 515.595 437.183C521.89 437.952 533.685 426.981 532.897 422.68C532.109 418.371 534.071 417.601 541.548 419.148C549.017 420.725 547.843 410.523 552.563 412.1C557.282 413.662 561.221 416.409 561.608 412.885C561.994 409.361 566.721 410.146 570.259 414.847C573.796 419.54 584.016 420.725 584.803 415.247C585.591 409.761 591.492 415.247 596.606 420.733C601.712 426.219 604.075 424.642 611.544 425.034C619.021 425.434 619.021 423.464 619.408 418.771C619.802 414.077 627.665 428.95 635.142 429.735C642.611 430.527 636.717 425.034 631.21 420.733C625.703 416.424 632.384 414.455 627.665 410.938C622.945 407.407 633.559 402.698 642.997 403.113C652.436 403.49 652.042 405.852 655.588 400.366C659.125 394.865 662.663 400.366 662.663 405.06C662.663 409.769 678.003 402.328 686.26 402.328C694.518 402.328 701.987 409.369 702.775 414.085C703.562 418.778 709.07 421.133 714.971 416.032C720.865 410.946 725.978 405.067 731.485 410.538C736.993 416.032 742.492 423.472 749.181 430.135C755.863 436.783 746.038 445.031 749.575 450.109C753.121 455.202 749.181 462.258 757.045 467.744C764.908 473.23 757.832 484.586 764.128 486.156C770.423 487.718 775.528 497.505 776.316 501.421C777.104 505.337 788.899 510.431 789.687 503.775C790.475 497.12 796.777 489.272 797.558 483.017C798.345 476.753 792.838 454.418 787.725 447.37C782.619 440.314 788.907 438.737 782.619 430.535C776.324 422.287 772.392 407.799 772.786 396.05C773.18 384.294 786.945 365.104 793.626 359.219C800.315 353.363 807.784 356.487 809.36 350.216C810.936 343.953 819.193 336.128 823.905 336.128C828.624 336.128 833.73 337.29 834.518 332.212C835.306 327.118 843.169 320.833 853.396 319.278C863.622 317.709 857.721 312.208 854.971 307.522C852.222 302.821 857.335 298.12 859.297 301.244C861.266 304.39 867.562 304.775 871.486 302.028C875.417 299.289 884.47 291.856 875.811 291.464C867.153 291.072 865.191 287.54 870.304 285.578C875.41 283.631 871.092 274.229 864.009 273.444C856.926 272.66 859.289 269.151 863.615 264.812C867.94 260.511 857.32 253.471 852.214 249.931C847.101 246.408 855.358 244.453 859.289 243.668C863.221 242.884 860.077 224.856 862.047 220.555C864.009 216.254 870.698 216.254 867.948 220.555C865.191 224.849 861.259 231.912 866.372 237.783C871.486 243.661 873.061 249.924 871.092 258.941C869.122 267.959 873.061 265.612 878.955 253.84C884.856 242.091 885.636 231.912 881.712 230.727C877.773 229.565 878.167 217.809 882.5 223.287C886.818 228.78 888.394 229.565 895.083 222.502C901.764 215.454 908.847 203.328 904.522 200.574C900.196 197.835 906.491 195.08 914.355 195.495C922.218 195.88 939.126 190.772 940.308 188.432C944.149 180.781 913.173 191.956 913.173 187.648C913.173 183.331 932.839 179.023 941.884 178.645C950.929 178.253 946.611 166.112 950.535 171.198C954.466 176.291 960.367 175.499 965.473 172.375C970.594 169.243 966.663 160.233 960.761 158.679C954.868 157.094 965.087 153.178 963.125 149.662C961.155 146.13 967.064 132.027 974.526 130.472C982.003 128.91 978.465 124.194 984.753 124.194C991.04 124.194 992.222 116.754 997.722 111.276C1003.23 105.782 1011.1 119.878 1019.75 112.053C1023.29 108.846 1028.08 105.284 1033 102.16C1012.85 75.6289 1018.55 57.881 1018.07 53.0592Z" fill="#B45623"/>
</g>
<defs>
<filter id="filter0_d_190_2" x="0" y="0" width="1037" height="513" filterUnits="userSpaceOnUse" color-interpolation-filters="sRGB">
<feFlood flood-opacity="0" result="BackgroundImageFix"/>
<feColorMatrix in="SourceAlpha" type="matrix" values="0 0 0 0 0 0 0 0 0 0 0 0 0 0 0 0 0 0 127 0" result="hardAlpha"/>
<feOffset dy="2"/>
<feGaussianBlur stdDeviation="2"/>
<feColorMatrix type="matrix" values="0 0 0 0 0 0 0 0 0 0 0 0 0 0 0 0 0 0 0.01 0"/>
<feBlend mode="normal" in2="BackgroundImageFix" result="effect1_dropShadow_190_2"/>
<feBlend mode="normal" in="SourceGraphic" in2="effect1_dropShadow_190_2" result="shape"/>
</filter>
</defs>
</svg>
