<svg width="546" height="326" viewBox="0 0 546 326" fill="none" xmlns="http://www.w3.org/2000/svg">
<path d="M22.1999 304.672H523.284V21.327H22.1999V304.672ZM545.484 316.859C545.484 321.749 541.486 325.742 536.459 325.987L535.969 325.999H9.51425C4.25968 325.999 0 321.907 0 316.859V9.14016C0 4.09219 4.25967 2.45358e-07 9.51425 0H535.969L536.459 0.0119012C541.486 0.25658 545.484 4.24986 545.484 9.14016V316.859Z" fill="white"/>
<path d="M113.035 193.809H225.876V132.189H113.035V193.809ZM243.693 202.612C243.693 207.322 239.95 211.168 235.243 211.404L234.785 211.415H104.126C99.3599 211.415 95.4678 207.716 95.2294 203.065L95.2178 202.612V123.386C95.2178 118.525 99.2063 114.584 104.126 114.584H234.785L235.243 114.595C239.95 114.831 243.693 118.677 243.693 123.386V202.612Z" fill="white"/>
<path d="M320.383 193.809H438.131V132.189H320.383V193.809ZM456.722 202.612C456.722 207.322 452.816 211.168 447.904 211.404L447.426 211.415H311.087C306.114 211.415 302.052 207.716 301.804 203.065L301.792 202.612V123.386C301.792 118.525 305.953 114.584 311.087 114.584H447.426L447.904 114.595C452.816 114.831 456.722 118.677 456.722 123.386V202.612Z" fill="white"/>
</svg>
