<svg width="1009" height="926" viewBox="0 0 1009 926" fill="none" xmlns="http://www.w3.org/2000/svg">
<path d="M335.388 188.785H645.877V13.215H335.388V188.785ZM659.632 196.336C659.632 199.367 657.155 201.841 654.04 201.993L653.737 202H327.528C324.272 202 321.632 199.464 321.632 196.336V5.66355C321.632 2.53566 324.272 1.52032e-07 327.528 0H653.737L654.04 0.00737442C657.155 0.158986 659.632 2.63335 659.632 5.66355V196.336Z" fill="white"/>
<path d="M391.672 120.091H461.592V81.9091H391.672V120.091ZM472.632 125.545C472.632 128.464 470.313 130.847 467.396 130.993L467.112 131H386.152C383.199 131 380.787 128.708 380.64 125.826L380.632 125.545V76.4545C380.632 73.4421 383.104 71 386.152 71H467.112L467.396 71.0071C470.313 71.1531 472.632 73.5362 472.632 76.4545V125.545Z" fill="white"/>
<path d="M520.152 120.091H593.112V81.9091H520.152V120.091ZM604.632 125.545C604.632 128.464 602.212 130.847 599.169 130.993L598.872 131H514.392C511.311 131 508.794 128.708 508.64 125.826L508.632 125.545V76.4545C508.632 73.4421 511.211 71 514.392 71H598.872L599.169 71.0071C602.212 71.1531 604.632 73.5362 604.632 76.4545V125.545Z" fill="white"/>
<path d="M769.041 924.683V880.726H795.57V885.448H774.364V900.3H794.197V905.022H774.364V919.961H795.914V924.683H769.041Z" fill="white"/>
<path d="M707.308 885.448V880.726H740.276V885.448H726.454V924.683H721.131V885.448H707.308Z" fill="white"/>
<path d="M655.255 924.683H649.674L665.815 880.726H671.31L687.45 924.683H681.87L668.734 887.68H668.391L655.255 924.683ZM657.315 907.512H679.809V912.234H657.315V907.512Z" fill="white"/>
<path d="M596.853 885.448V880.726H629.821V885.448H615.999V924.683H610.676V885.448H596.853Z" fill="white"/>
<path d="M564.203 891.715C563.945 889.54 562.901 887.851 561.069 886.649C559.237 885.447 556.991 884.847 554.329 884.847C552.383 884.847 550.681 885.161 549.221 885.791C547.776 886.421 546.645 887.286 545.83 888.388C545.029 889.49 544.628 890.742 544.628 892.144C544.628 893.317 544.907 894.326 545.465 895.17C546.037 896 546.767 896.694 547.654 897.252C548.541 897.796 549.472 898.247 550.445 898.605C551.418 898.948 552.312 899.227 553.127 899.442L557.592 900.644C558.737 900.944 560.01 901.359 561.412 901.889C562.829 902.418 564.181 903.141 565.469 904.056C566.771 904.958 567.844 906.117 568.689 907.534C569.533 908.95 569.955 910.689 569.955 912.749C569.955 915.124 569.333 917.271 568.088 919.188C566.857 921.106 565.054 922.63 562.679 923.76C560.318 924.89 557.449 925.456 554.072 925.456C550.924 925.456 548.198 924.948 545.894 923.932C543.605 922.916 541.802 921.499 540.485 919.682C539.183 917.865 538.446 915.754 538.275 913.35H543.769C543.912 915.01 544.47 916.384 545.444 917.471C546.431 918.544 547.676 919.346 549.178 919.875C550.695 920.39 552.326 920.648 554.072 920.648C556.104 920.648 557.928 920.319 559.545 919.66C561.162 918.988 562.443 918.058 563.387 916.87C564.331 915.668 564.804 914.266 564.804 912.663C564.804 911.204 564.396 910.016 563.58 909.1C562.765 908.185 561.691 907.441 560.361 906.868C559.03 906.296 557.592 905.795 556.047 905.366L550.638 903.82C547.204 902.833 544.485 901.424 542.482 899.592C540.478 897.76 539.477 895.364 539.477 892.402C539.477 889.941 540.142 887.794 541.473 885.963C542.818 884.117 544.621 882.686 546.882 881.67C549.157 880.64 551.697 880.125 554.501 880.125C557.334 880.125 559.853 880.632 562.056 881.648C564.26 882.65 566.006 884.024 567.293 885.769C568.596 887.515 569.282 889.497 569.354 891.715H564.203Z" fill="white"/>
<path d="M483.491 924.683V880.726H510.02V885.448H488.814V900.3H508.646V905.022H488.814V919.961H510.363V924.683H483.491Z" fill="white"/>
<path d="M379.305 924.683V880.726H384.628V919.961H405.061V924.683H379.305Z" fill="white"/>
<path d="M313.668 924.683H308.087L324.228 880.726H329.723L345.863 924.683H340.283L327.147 887.68H326.804L313.668 924.683ZM315.728 907.512H338.222V912.234H315.728V907.512Z" fill="white"/>
<path d="M249.147 924.683V880.726H275.676V885.448H254.47V900.3H274.302V905.022H254.47V919.961H276.019V924.683H249.147Z" fill="white"/>
<path d="M183.892 924.683V880.726H198.745C202.179 880.726 204.998 881.312 207.202 882.486C209.405 883.645 211.036 885.24 212.095 887.272C213.154 889.304 213.684 891.615 213.684 894.205C213.684 896.795 213.154 899.091 212.095 901.095C211.036 903.098 209.412 904.672 207.223 905.817C205.034 906.947 202.236 907.512 198.831 907.512H186.811V902.704H198.659C201.006 902.704 202.895 902.361 204.325 901.674C205.771 900.987 206.815 900.014 207.459 898.755C208.117 897.482 208.446 895.965 208.446 894.205C208.446 892.445 208.117 890.906 207.459 889.59C206.801 888.274 205.749 887.258 204.304 886.542C202.859 885.812 200.948 885.448 198.573 885.448H189.215V924.683H183.892ZM204.583 904.937L215.401 924.683H209.219L198.573 904.937H204.583Z" fill="white"/>
<path d="M924.722 493.13C924.722 501.028 918.141 504.977 904.978 504.977C890.311 504.977 878.841 498.866 870.567 486.643C866.994 481.378 864.643 476.301 863.515 471.412C862.575 466.523 861.071 454.112 859.002 434.18C857.874 422.145 854.019 413.683 847.438 408.794C840.856 403.717 830.138 400.991 815.283 400.615V489.464C815.283 493.224 818.292 495.575 824.309 496.515C826.001 496.703 830.326 496.891 837.284 497.079C839.728 497.079 840.95 497.831 840.95 499.336C840.95 501.028 839.352 501.874 836.155 501.874H832.771C831.078 501.686 822.899 501.592 808.231 501.592C805.411 501.592 800.616 501.686 793.846 501.874C787.265 501.874 782.94 501.874 780.872 501.874H769.871C765.734 501.874 763.666 501.028 763.666 499.336C763.666 498.019 766.392 497.267 771.846 497.079C780.684 496.891 785.479 495.763 786.231 493.694C786.983 492.754 787.359 489.087 787.359 482.694V326.997C787.359 319.475 786.513 314.962 784.82 313.458C783.316 311.954 778.521 311.107 770.435 310.919C765.734 310.919 763.384 310.073 763.384 308.381C763.384 306.5 764.888 305.56 767.897 305.56C768.461 305.56 769.307 305.654 770.435 305.842L807.949 306.688C811.71 306.688 816.975 306.594 823.745 306.406C831.266 306.03 836.531 305.842 839.54 305.842C857.028 305.842 870.849 309.791 881.003 317.689C891.345 325.398 896.516 335.929 896.516 349.28C896.516 362.442 891.251 373.349 880.721 381.999C870.191 390.46 855.9 395.443 837.848 396.948C836.155 397.136 835.215 397.418 835.027 397.794C835.027 398.546 835.967 398.922 837.848 398.922C857.592 402.307 871.131 409.264 878.464 419.795C885.986 430.137 890.969 448.941 893.414 476.207C894.918 491.626 900.183 499.336 909.209 499.336C912.03 499.336 913.44 498.772 913.44 497.643C913.44 497.455 913.346 497.267 913.158 497.079C912.218 495.011 911.748 493.318 911.748 492.002C911.748 488.053 913.816 486.079 917.953 486.079C922.466 486.079 924.722 488.429 924.722 493.13ZM866.336 351.818C866.336 324.928 854.677 311.483 831.36 311.483C825.155 311.483 820.924 312.33 818.668 314.022C816.411 315.714 815.283 318.723 815.283 323.048V394.691C833.335 394.879 846.31 391.589 854.207 384.819C862.293 378.05 866.336 367.049 866.336 351.818Z" fill="white"/>
<path d="M745.887 455.898C745.887 456.65 745.699 461.257 745.323 469.719C744.946 478.181 744.758 486.267 744.758 493.976V503.284C726.331 502.344 689.851 501.874 635.319 501.874C628.738 501.874 622.25 501.968 615.857 502.156C609.464 502.156 605.139 502.156 602.882 502.156H600.061C596.489 502.156 594.702 501.31 594.702 499.618C594.702 498.489 595.267 497.831 596.395 497.643C596.959 497.643 600.532 497.361 607.113 496.797C612.002 496.421 614.917 495.387 615.857 493.694C616.985 492.002 617.549 487.583 617.549 480.438V321.92C617.549 316.466 616.703 313.27 615.011 312.33C613.506 311.201 608.429 310.637 599.779 310.637C596.771 310.637 595.267 309.791 595.267 308.099C595.267 306.406 597.335 305.56 601.472 305.56L649.704 305.842C651.396 305.842 662.021 305.748 681.577 305.56C701.133 305.56 714.296 305.56 721.065 305.56C726.707 305.56 731.878 305.184 736.579 304.432C736.955 312.518 737.801 323.706 739.117 337.997L740.246 350.126C740.434 351.066 740.528 352.288 740.528 353.792C740.528 355.673 739.681 356.613 737.989 356.613C735.921 356.613 734.416 354.263 733.476 349.562C729.903 332.638 724.074 321.92 715.988 317.407C709.971 314.022 694.176 312.33 668.602 312.33H645.473V394.973H652.243C673.303 394.973 686.09 393.375 690.603 390.178C695.304 386.982 698.501 377.674 700.193 362.254C700.569 358.305 701.603 356.331 703.296 356.331C705.364 356.331 706.398 358.023 706.398 361.408C706.398 364.793 706.21 369.776 705.834 376.357C705.458 382.939 705.27 387.922 705.27 391.306C705.27 411.427 705.646 425.248 706.398 432.769C706.586 434.65 706.68 436.248 706.68 437.564C706.68 440.009 705.646 441.231 703.578 441.231C702.261 441.231 701.321 440.479 700.757 438.975C700.381 437.282 699.629 432.017 698.501 423.179C696.996 412.085 692.389 405.221 684.68 402.589C681.295 401.461 672.457 400.897 658.166 400.897H645.473V495.669C686.842 495.669 711.099 494.823 718.245 493.13C730.655 490.31 737.707 478.275 739.399 457.027C739.775 452.326 740.998 449.975 743.066 449.975C744.946 449.975 745.887 451.949 745.887 455.898Z" fill="white"/>
<path d="M577.514 355.767C577.514 358.212 576.386 359.434 574.13 359.434C571.873 359.434 570.275 356.989 569.335 352.1C568.959 348.716 568.582 345.331 568.206 341.946C566.89 335.177 564.728 329.441 561.719 324.74C557.77 318.535 551.283 314.586 542.257 312.894C536.428 311.766 531.727 311.296 528.154 311.484C519.316 311.86 513.957 312.142 512.076 312.33V482.412C512.076 489.182 513.863 493.413 517.435 495.105C519.316 496.045 524.581 496.609 533.231 496.797C535.487 496.985 536.616 497.832 536.616 499.336C536.616 501.028 535.111 501.874 532.103 501.874C530.598 501.874 529.282 501.78 528.154 501.592C516.871 501.216 508.88 501.028 504.179 501.028C497.973 501.028 492.144 501.122 486.691 501.31C481.238 501.498 474.28 501.592 465.818 501.592C461.494 501.592 459.331 500.84 459.331 499.336C459.331 497.644 463.374 496.703 471.46 496.515C477.289 496.515 481.05 495.293 482.742 492.848C483.682 491.344 484.152 487.489 484.152 481.284V312.33C465.536 312.518 453.972 313.458 449.459 315.15C437.612 319.475 430.655 331.04 428.586 349.844C428.022 355.485 426.706 358.306 424.638 358.306C422.381 358.306 421.253 356.331 421.253 352.382C421.253 350.314 421.347 348.246 421.535 346.177L422.099 339.69C422.663 331.04 423.509 319.663 424.638 305.56H437.33L494.871 306.407C501.64 306.595 512.17 306.501 526.461 306.125L573.283 305.278C573.66 315.809 574.882 331.416 576.95 352.1C576.95 352.664 577.044 353.417 577.232 354.357C577.42 355.109 577.514 355.579 577.514 355.767Z" fill="white"/>
<path d="M423.634 499.618C423.634 501.31 422.223 502.156 419.403 502.156C417.522 502.156 415.83 502.062 414.326 501.874L378.504 501.31L342.682 501.874C341.366 502.062 339.956 502.156 338.451 502.156C334.691 502.156 332.81 501.216 332.81 499.336C332.81 497.267 335.349 496.233 340.426 496.233C356.973 496.045 365.247 494.353 365.247 491.156C365.247 490.968 365.059 490.216 364.683 488.899L362.427 481.284L361.016 477.335C359.324 471.506 355.187 458.625 348.606 438.693H288.245C276.962 468.779 271.321 486.079 271.321 490.592C271.321 493.224 272.449 494.823 274.706 495.387C275.27 495.575 279.971 495.951 288.809 496.515C294.262 496.703 296.989 497.643 296.989 499.336C296.989 501.216 294.544 502.156 289.655 502.156C281.005 502.156 270.945 501.78 259.474 501.028C256.654 500.84 253.739 500.746 250.731 500.746C247.722 500.746 244.807 500.934 241.987 501.31C240.482 501.498 239.26 501.592 238.32 501.592C235.687 501.592 234.371 500.746 234.371 499.054C234.371 497.361 237.286 496.421 243.115 496.233C249.132 496.045 253.457 495.199 256.09 493.694C258.722 492.002 260.791 488.899 262.295 484.386C286.552 415.188 306.296 359.622 321.528 317.689C321.904 315.432 322.656 312.894 323.784 310.073L325.195 304.996C325.759 302.928 326.511 301.893 327.451 301.893C328.015 301.893 328.485 302.457 328.861 303.586C331.306 310.919 336.853 326.245 345.503 349.561C352.272 367.801 369.102 413.589 395.992 486.925C397.496 491.062 399.376 493.694 401.633 494.823C404.077 495.951 408.966 496.609 416.3 496.797C421.189 496.985 423.634 497.925 423.634 499.618ZM346.913 432.205C343.905 423.743 338.921 409.734 331.964 390.178L318.425 351.536C310.527 372.22 301.031 399.11 289.937 432.205H346.913Z" fill="white"/>
<path d="M227.627 474.535C227.627 480.472 227.285 490.29 226.6 503.99H222.832C221.462 503.99 218.151 503.762 212.9 503.305C207.648 502.848 201.711 502.62 195.089 502.62L52.6087 501.593C48.727 501.593 46.7861 500.565 46.7861 498.51C46.7861 496.912 49.8686 495.884 56.0337 495.427C64.7104 494.971 69.8479 494.057 71.4463 492.687C73.2729 491.089 74.1863 486.751 74.1863 479.672V287.186C74.1863 278.738 73.2729 273.829 71.4463 272.459C69.8479 271.089 63.7971 270.404 53.2937 270.404C48.9553 270.404 46.7861 269.148 46.7861 266.636C46.7861 264.581 48.1561 263.554 50.8962 263.554H53.9787C61.5137 264.239 76.4696 264.581 98.8464 264.581C100.901 264.581 104.897 264.467 110.834 264.239C116.771 263.782 121.68 263.554 125.562 263.554H129.329C133.439 263.554 135.494 264.695 135.494 266.979C135.494 268.349 134.809 269.262 133.439 269.719C132.297 269.947 128.416 270.175 121.794 270.404C115.172 270.632 111.176 271.774 109.806 273.829C108.665 275.655 108.094 281.592 108.094 291.639V493.715C114.259 493.943 122.822 494.057 133.782 494.057C160.497 494.057 179.334 492.687 190.294 489.947C201.254 487.207 208.675 482.07 212.557 474.535C216.439 467 218.722 456.839 219.407 444.052C219.635 441.084 221.005 439.6 223.517 439.6C226.485 439.6 227.855 441.312 227.627 444.737L227.285 453.3C227.285 453.756 227.285 454.784 227.285 456.382C227.513 457.981 227.627 459.579 227.627 461.177V474.535Z" fill="white"/>
<path d="M929.958 671.554C929.958 675.207 928.776 678.323 926.412 680.902C924.048 683.481 921.254 684.77 918.03 684.77C911.583 684.77 908.36 681.654 908.36 675.422C908.36 670.264 910.509 667.686 914.807 667.686C915.452 667.686 916.419 668.008 917.708 668.653C919.212 669.297 920.394 669.62 921.254 669.62C922.543 669.62 923.188 668.868 923.188 667.363C923.188 663.71 920.717 660.164 915.774 656.726C910.831 653.287 905.781 651.568 900.623 651.568C893.746 651.568 887.944 653.824 883.216 658.337C878.488 662.635 876.124 667.901 876.124 674.133C876.124 679.505 881.174 694.441 891.275 718.94C893.639 724.742 894.821 731.297 894.821 738.604C894.821 753.217 889.878 765.467 879.993 775.352C870.107 785.238 857.75 790.18 842.922 790.18C830.028 790.18 819.175 786.635 810.364 779.543C801.768 772.236 797.47 763.317 797.47 752.787C797.47 746.77 799.296 741.827 802.95 737.959C806.388 734.091 810.794 732.157 816.166 732.157C820.249 732.157 823.688 733.553 826.482 736.347C829.49 739.141 830.995 742.472 830.995 746.34C830.995 752.787 827.879 756.011 821.646 756.011C814.984 756.011 811.653 753.754 811.653 749.241C811.653 747.737 811.868 746.233 812.298 744.728C812.943 743.224 813.265 742.364 813.265 742.15C813.265 740.001 812.405 738.926 810.686 738.926C808.752 738.926 807.033 740.43 805.529 743.439C803.809 746.233 802.95 749.349 802.95 752.787C802.95 761.168 806.388 768.475 813.265 774.707C820.357 780.94 828.631 784.056 838.086 784.056C846.897 784.056 854.204 781.369 860.006 775.997C866.024 770.624 869.032 763.855 869.032 755.688C869.032 749.886 866.776 740.43 862.263 727.321C857.965 714.857 855.816 704.542 855.816 696.375C855.816 682.406 860.007 670.694 868.388 661.239C876.984 651.568 887.407 646.733 899.656 646.733C907.822 646.733 914.914 649.204 920.932 654.147C926.949 659.089 929.958 664.892 929.958 671.554Z" fill="white"/>
<path d="M828.34 588.708C828.34 597.734 824.149 602.247 815.768 602.247C811.47 602.247 807.924 600.958 805.131 598.379C802.337 595.585 800.94 592.147 800.94 588.064C800.94 579.253 805.883 574.847 815.768 574.847C824.149 574.847 828.34 579.467 828.34 588.708ZM806.098 648.989C806.098 649.633 805.56 650.923 804.486 652.857C802.981 655.436 800.51 660.701 797.072 668.652L760.001 753.432C755.058 764.821 752.587 771.913 752.587 774.707C752.587 780.509 755.595 783.411 761.613 783.411C765.696 783.411 770.316 782.014 775.474 779.22C780.846 776.211 784.93 772.665 787.723 768.582C789.657 766.003 791.162 764.714 792.236 764.714C793.526 764.714 794.17 765.359 794.17 766.648C794.17 769.227 791.162 773.095 785.144 778.253C776.119 785.989 765.911 789.858 754.521 789.858C746.999 789.858 740.767 787.924 735.824 784.055C731.096 780.187 728.732 775.244 728.732 769.227C728.732 763.854 731.419 755.151 736.791 743.116L770.316 668.33C771.391 664.677 772.68 661.883 774.184 659.949C774.829 659.089 775.152 658.337 775.152 657.692C775.152 655.758 770.424 654.469 760.968 653.824C759.249 653.394 758.389 652.642 758.389 651.567C758.389 649.633 759.249 648.666 760.968 648.666C761.183 648.666 762.795 648.881 765.803 649.311C768.812 649.741 773.647 649.956 780.309 649.956C789.335 649.956 795.675 649.204 799.328 647.699C801.477 646.84 802.981 646.41 803.841 646.41C805.345 646.41 806.098 647.269 806.098 648.989Z" fill="white"/>
<path d="M755.113 560.019C755.113 560.449 754.575 561.953 753.501 564.532C752.856 566.251 751.782 568.83 750.277 572.268L678.07 748.597C672.697 761.706 670.011 770.194 670.011 774.063C670.011 779.865 673.879 782.766 681.616 782.766C689.352 782.766 697.089 778.253 704.825 769.227C708.049 765.359 710.09 763.425 710.95 763.425C712.454 763.425 713.206 764.177 713.206 765.681C713.206 768.475 709.661 772.988 702.569 779.22C694.402 786.527 683.872 790.18 670.978 790.18C653.356 790.18 644.545 783.626 644.545 770.517C644.545 766.219 647.231 757.515 652.604 744.406L724.811 568.4C725.456 567.111 725.778 566.359 725.778 566.144C725.778 564.21 723.737 563.243 719.654 563.243C710.198 563.243 705.47 562.383 705.47 560.664C705.47 559.374 706.437 558.73 708.371 558.73C710.305 558.73 713.206 558.837 717.075 559.052C721.158 559.267 724.167 559.374 726.101 559.374C735.342 559.374 742.218 558.944 746.731 558.085C749.095 557.655 750.707 557.44 751.567 557.44C753.931 557.44 755.113 558.3 755.113 560.019Z" fill="white"/>
<path d="M659.62 588.708C659.62 597.734 655.43 602.247 647.048 602.247C642.75 602.247 639.205 600.958 636.411 598.379C633.617 595.585 632.22 592.147 632.22 588.064C632.22 579.253 637.163 574.847 647.048 574.847C655.43 574.847 659.62 579.467 659.62 588.708ZM637.378 648.989C637.378 649.633 636.841 650.923 635.766 652.857C634.262 655.436 631.79 660.701 628.352 668.652L591.281 753.432C586.338 764.821 583.867 771.913 583.867 774.707C583.867 780.509 586.876 783.411 592.893 783.411C596.976 783.411 601.596 782.014 606.754 779.22C612.127 776.211 616.21 772.665 619.004 768.582C620.938 766.003 622.442 764.714 623.517 764.714C624.806 764.714 625.451 765.359 625.451 766.648C625.451 769.227 622.442 773.095 616.425 778.253C607.399 785.989 597.191 789.858 585.801 789.858C578.279 789.858 572.047 787.924 567.104 784.055C562.377 780.187 560.013 775.244 560.013 769.227C560.013 763.854 562.699 755.151 568.072 743.116L601.596 668.33C602.671 664.677 603.96 661.883 605.465 659.949C606.109 659.089 606.432 658.337 606.432 657.692C606.432 655.758 601.704 654.469 592.248 653.824C590.529 653.394 589.669 652.642 589.669 651.567C589.669 649.633 590.529 648.666 592.248 648.666C592.463 648.666 594.075 648.881 597.083 649.311C600.092 649.741 604.927 649.956 611.589 649.956C620.615 649.956 626.955 649.204 630.608 647.699C632.757 646.84 634.262 646.41 635.121 646.41C636.626 646.41 637.378 647.269 637.378 648.989Z" fill="white"/>
<path d="M546.862 687.671C546.862 711.74 535.58 734.843 513.015 756.978C490.665 778.898 467.241 789.858 442.742 789.858C431.352 789.858 421.681 786.849 413.73 780.832C405.993 774.6 402.125 767.185 402.125 758.589C402.125 753.647 405.349 743.761 411.796 728.933L479.812 573.558C480.457 571.194 481.317 569.26 482.391 567.755C483.466 566.036 484.003 565.069 484.003 564.854C484.003 562.49 478.093 561.523 466.274 561.953C464.554 561.953 463.695 561.308 463.695 560.019C463.695 558.515 466.381 557.762 471.754 557.762C489.591 557.762 499.584 557.655 501.733 557.44L508.502 556.795H510.759C512.478 556.795 513.337 557.44 513.337 558.729C513.337 559.374 513.015 560.234 512.37 561.308C510.221 564.532 507.965 569.045 505.601 574.847L474.977 649.956C472.828 655.113 469.927 661.131 466.274 668.008C467.563 666.718 468.637 665.751 469.497 665.106L477.878 657.37C485.615 650.278 495.5 646.732 507.535 646.732C518.925 646.732 528.273 650.601 535.58 658.337C543.101 666.074 546.862 675.852 546.862 687.671ZM520.751 674.777C520.751 659.949 515.164 652.535 503.989 652.535C482.499 652.535 462.943 673.917 445.321 716.683L437.584 735.38C430.062 753.647 426.302 765.896 426.302 772.128C426.302 780.724 431.997 785.022 443.386 785.022C464.447 785.022 483.466 768.797 500.443 736.347C513.982 710.558 520.751 690.035 520.751 674.777Z" fill="white"/>
<path d="M385.067 698.954C385.067 724.098 373.57 746.77 350.575 766.971C332.523 782.874 313.719 790.825 294.163 790.825C280.839 790.825 269.879 786.205 261.283 776.964C252.687 767.723 248.389 755.796 248.389 741.182C248.389 728.718 251.935 715.931 259.026 702.822C266.118 689.713 275.574 678.538 287.394 669.297C305.875 654.899 323.712 647.7 340.904 647.7C354.014 647.7 364.651 652.427 372.818 661.883C380.984 671.339 385.067 683.696 385.067 698.954ZM360.246 678.001C360.246 661.668 352.939 653.502 338.326 653.502C320.489 653.502 305.016 666.289 291.907 691.862C279.442 716.361 273.21 739.356 273.21 760.846C273.21 776.964 280.409 785.023 294.808 785.023C312.86 785.023 327.903 773.418 339.937 750.208C353.476 723.99 360.246 699.921 360.246 678.001Z" fill="white"/>
<path d="M291.086 565.177C291.086 567.756 287.97 568.937 281.738 568.723L267.232 568.4C262.504 568.4 259.281 570.012 257.561 573.236L254.983 580.65L250.147 592.899L185.676 764.392C184.602 766.541 182.99 770.087 180.841 775.03C180.841 775.03 180.196 776.749 178.907 780.187C176.973 785.13 175.468 787.601 174.394 787.601C172.46 787.601 170.848 784.808 169.559 779.22L118.627 573.88L55.1227 750.208C49.5352 765.681 46.7414 774.385 46.7414 776.319C46.7414 778.898 50.2873 780.187 57.3791 780.187H61.2474C62.9666 780.187 64.6858 780.08 66.4051 779.865C68.1243 779.865 68.9839 779.865 68.9839 779.865C76.2906 779.865 79.944 780.939 79.944 783.088C79.944 785.237 78.3322 786.312 75.1086 786.312C73.6043 786.312 70.5957 786.205 66.0827 785.99C57.0568 785.56 48.0309 785.345 39.0049 785.345C37.9304 785.345 34.492 785.452 28.6896 785.667C22.8872 785.882 17.6221 785.99 12.8942 785.99H5.48003C1.82668 785.99 0 785.13 0 783.411C0 781.692 2.57884 780.51 7.73651 779.865H11.9271C13.0016 779.865 16.8699 779.65 23.5319 779.22C30.1939 778.79 34.7069 776.749 37.0708 773.095C37.9304 771.161 39.2198 768.153 40.939 764.07L47.0638 747.952L110.245 573.236C110.675 572.376 111.105 571.516 111.535 570.657C111.535 568.937 108.526 568.078 102.509 568.078C92.1934 568.078 85.9613 568.185 83.8122 568.4H78.6545C74.3565 568.4 72.2075 567.218 72.2075 564.854C72.2075 562.275 74.1416 560.986 78.0098 560.986C79.0844 560.986 81.5557 561.094 85.424 561.308C93.1605 561.738 104.98 561.953 120.883 561.953C133.132 561.953 141.406 561.738 145.704 561.308L190.189 733.768L242.088 592.577C246.601 580.327 248.858 573.128 248.858 570.979C248.858 569.045 247.354 568.078 244.345 568.078C244.99 568.078 241.551 568.185 234.03 568.4L222.747 568.723C218.234 568.937 215.978 567.97 215.978 565.821C215.978 563.243 218.234 561.953 222.747 561.953L261.752 562.598C262.827 562.598 264.868 562.598 267.877 562.598C271.1 562.383 274.109 562.276 276.903 562.276H286.896C289.689 562.276 291.086 563.243 291.086 565.177Z" fill="white"/>
<path d="M977.632 659V635H985.175C986.918 635 988.35 635.32 989.469 635.961C990.588 636.594 991.416 637.465 991.954 638.574C992.492 639.683 992.76 640.945 992.76 642.359C992.76 643.773 992.492 645.027 991.954 646.121C991.416 647.215 990.591 648.074 989.48 648.699C988.368 649.316 986.947 649.625 985.218 649.625H979.115V647H985.131C986.323 647 987.282 646.812 988.008 646.437C988.742 646.062 989.273 645.531 989.6 644.844C989.934 644.148 990.101 643.32 990.101 642.359C990.101 641.398 989.934 640.558 989.6 639.84C989.265 639.121 988.731 638.566 987.997 638.176C987.264 637.777 986.294 637.578 985.087 637.578H980.335V659H977.632ZM988.139 648.219L993.632 659H990.493L985.087 648.219H988.139Z" fill="white"/>
<path d="M1004.63 646.5C1004.63 635.224 995.678 626.083 984.632 626.083C973.587 626.083 964.632 635.224 964.632 646.5C964.632 657.776 973.587 666.917 984.632 666.917V671C971.377 671 960.632 660.031 960.632 646.5C960.632 632.969 971.377 622 984.632 622C997.887 622 1008.63 632.969 1008.63 646.5C1008.63 660.031 997.887 671 984.632 671V666.917C995.678 666.917 1004.63 657.776 1004.63 646.5Z" fill="white"/>
</svg>
