<svg width="2596" height="326" viewBox="0 0 2596 326" fill="none" xmlns="http://www.w3.org/2000/svg">
<path d="M22.1999 304.672H523.284V21.327H22.1999V304.672ZM545.484 316.859C545.484 321.749 541.486 325.742 536.459 325.987L535.969 325.999H9.51425C4.25968 325.999 0 321.907 0 316.859V9.14016C0 4.09219 4.25967 2.45358e-07 9.51425 0H535.969L536.459 0.0119012C541.486 0.25658 545.484 4.24986 545.484 9.14016V316.859Z" fill="white"/>
<path d="M113.035 193.809H225.876V132.189H113.035V193.809ZM243.693 202.612C243.693 207.322 239.95 211.168 235.243 211.404L234.785 211.415H104.126C99.3599 211.415 95.4678 207.716 95.2294 203.065L95.2178 202.612V123.386C95.2178 118.525 99.2063 114.584 104.126 114.584H234.785L235.243 114.595C239.95 114.831 243.693 118.677 243.693 123.386V202.612Z" fill="white"/>
<path d="M320.383 193.809H438.131V132.189H320.383V193.809ZM456.722 202.612C456.722 207.322 452.816 211.168 447.904 211.404L447.426 211.415H311.087C306.114 211.415 302.052 207.716 301.804 203.065L301.792 202.612V123.386C301.792 118.525 305.953 114.584 311.087 114.584H447.426L447.904 114.595C452.816 114.831 456.722 118.677 456.722 123.386V202.612Z" fill="white"/>
<path d="M1523.92 270.131C1523.92 278.028 1517.34 281.977 1504.17 281.977C1489.51 281.977 1478.04 275.866 1469.76 263.643C1466.19 258.378 1463.84 253.301 1462.71 248.412C1461.77 243.523 1460.27 231.112 1458.2 211.18C1457.07 199.145 1453.21 190.684 1446.63 185.794C1440.05 180.717 1429.33 177.991 1414.48 177.615V266.464C1414.48 270.225 1417.49 272.575 1423.5 273.515C1425.2 273.703 1429.52 273.891 1436.48 274.079C1438.92 274.079 1440.15 274.832 1440.15 276.336C1440.15 278.028 1438.55 278.874 1435.35 278.874H1431.97C1430.27 278.686 1422.09 278.592 1407.43 278.592C1404.61 278.592 1399.81 278.686 1393.04 278.874C1386.46 278.874 1382.14 278.874 1380.07 278.874H1369.07C1364.93 278.874 1362.86 278.028 1362.86 276.336C1362.86 275.02 1365.59 274.267 1371.04 274.079C1379.88 273.891 1384.67 272.763 1385.43 270.695C1386.18 269.754 1386.55 266.088 1386.55 259.694V103.997C1386.55 96.4753 1385.71 91.9624 1384.02 90.4581C1382.51 88.9537 1377.72 88.1076 1369.63 87.9195C1364.93 87.9195 1362.58 87.0733 1362.58 85.381C1362.58 83.5006 1364.08 82.5604 1367.09 82.5604C1367.66 82.5604 1368.5 82.6544 1369.63 82.8424L1407.14 83.6886C1410.91 83.6886 1416.17 83.5946 1422.94 83.4065C1430.46 83.0305 1435.73 82.8424 1438.74 82.8424C1456.22 82.8424 1470.04 86.7913 1480.2 94.689C1490.54 102.399 1495.71 112.929 1495.71 126.28C1495.71 139.443 1490.45 150.349 1479.92 158.999C1469.39 167.461 1455.09 172.444 1437.04 173.948C1435.35 174.136 1434.41 174.418 1434.22 174.794C1434.22 175.546 1435.16 175.922 1437.04 175.922C1456.79 179.307 1470.33 186.265 1477.66 196.795C1485.18 207.137 1490.16 225.941 1492.61 253.207C1494.11 268.626 1499.38 276.336 1508.4 276.336C1511.22 276.336 1512.64 275.772 1512.64 274.643C1512.64 274.455 1512.54 274.267 1512.35 274.079C1511.41 272.011 1510.94 270.319 1510.94 269.002C1510.94 265.053 1513.01 263.079 1517.15 263.079C1521.66 263.079 1523.92 265.43 1523.92 270.131ZM1465.53 128.818C1465.53 101.929 1453.87 88.4836 1430.56 88.4836C1424.35 88.4836 1420.12 89.3298 1417.86 91.0222C1415.61 92.7145 1414.48 95.7232 1414.48 100.048V171.691C1432.53 171.879 1445.5 168.589 1453.4 161.819C1461.49 155.05 1465.53 144.05 1465.53 128.818Z" fill="white"/>
<path d="M1345.08 232.898C1345.08 233.651 1344.89 238.258 1344.52 246.719C1344.14 255.181 1343.95 263.267 1343.95 270.977V280.285C1325.53 279.344 1289.05 278.874 1234.51 278.874C1227.93 278.874 1221.45 278.968 1215.05 279.156C1208.66 279.156 1204.33 279.156 1202.08 279.156H1199.26C1195.68 279.156 1193.9 278.31 1193.9 276.618C1193.9 275.49 1194.46 274.831 1195.59 274.643C1196.15 274.643 1199.73 274.361 1206.31 273.797C1211.2 273.421 1214.11 272.387 1215.05 270.695C1216.18 269.002 1216.74 264.583 1216.74 257.438V98.9198C1216.74 93.4666 1215.9 90.2699 1214.21 89.3297C1212.7 88.2015 1207.62 87.6373 1198.97 87.6373C1195.97 87.6373 1194.46 86.7912 1194.46 85.0988C1194.46 83.4064 1196.53 82.5603 1200.67 82.5603L1248.9 82.8423C1250.59 82.8423 1261.22 82.7483 1280.77 82.5603C1300.33 82.5603 1313.49 82.5603 1320.26 82.5603C1325.9 82.5603 1331.07 82.1842 1335.77 81.432C1336.15 89.5177 1337 100.706 1338.31 114.997L1339.44 127.126C1339.63 128.066 1339.72 129.288 1339.72 130.793C1339.72 132.673 1338.88 133.613 1337.18 133.613C1335.12 133.613 1333.61 131.263 1332.67 126.562C1329.1 109.638 1323.27 98.9198 1315.18 94.4068C1309.17 91.0221 1293.37 89.3297 1267.8 89.3297H1244.67V171.973H1251.44C1272.5 171.973 1285.29 170.375 1289.8 167.178C1294.5 163.982 1297.7 154.674 1299.39 139.254C1299.76 135.306 1300.8 133.331 1302.49 133.331C1304.56 133.331 1305.59 135.023 1305.59 138.408C1305.59 141.793 1305.41 146.776 1305.03 153.357C1304.65 159.939 1304.47 164.922 1304.47 168.307C1304.47 188.427 1304.84 202.248 1305.59 209.769C1305.78 211.65 1305.88 213.248 1305.88 214.565C1305.88 217.009 1304.84 218.231 1302.77 218.231C1301.46 218.231 1300.52 217.479 1299.95 215.975C1299.58 214.282 1298.82 209.017 1297.7 200.179C1296.19 189.085 1291.58 182.222 1283.87 179.589C1280.49 178.461 1271.65 177.897 1257.36 177.897H1244.67V272.669C1286.04 272.669 1310.29 271.823 1317.44 270.13C1329.85 267.31 1336.9 255.275 1338.59 234.027C1338.97 229.326 1340.19 226.975 1342.26 226.975C1344.14 226.975 1345.08 228.95 1345.08 232.898Z" fill="white"/>
<path d="M1176.71 132.767C1176.71 135.212 1175.58 136.434 1173.32 136.434C1171.07 136.434 1169.47 133.99 1168.53 129.101C1168.15 125.716 1167.78 122.331 1167.4 118.946C1166.09 112.177 1163.92 106.442 1160.91 101.741C1156.97 95.5353 1150.48 91.5865 1141.45 89.8941C1135.62 88.7659 1130.92 88.2958 1127.35 88.4838C1118.51 88.8599 1113.15 89.142 1111.27 89.33V259.412C1111.27 266.182 1113.06 270.413 1116.63 272.105C1118.51 273.045 1123.78 273.609 1132.43 273.797C1134.68 273.986 1135.81 274.832 1135.81 276.336C1135.81 278.028 1134.31 278.875 1131.3 278.875C1129.79 278.875 1128.48 278.781 1127.35 278.593C1116.07 278.216 1108.08 278.028 1103.37 278.028C1097.17 278.028 1091.34 278.122 1085.89 278.31C1080.43 278.498 1073.48 278.593 1065.01 278.593C1060.69 278.593 1058.53 277.84 1058.53 276.336C1058.53 274.644 1062.57 273.703 1070.65 273.515C1076.48 273.515 1080.25 272.293 1081.94 269.849C1082.88 268.344 1083.35 264.489 1083.35 258.284V89.33C1064.73 89.5181 1053.17 90.4583 1048.65 92.1506C1036.81 96.4756 1029.85 108.04 1027.78 126.844C1027.22 132.485 1025.9 135.306 1023.83 135.306C1021.58 135.306 1020.45 133.331 1020.45 129.383C1020.45 127.314 1020.54 125.246 1020.73 123.177L1021.29 116.69C1021.86 108.04 1022.7 96.6636 1023.83 82.5606H1036.53L1094.07 83.4067C1100.84 83.5948 1111.37 83.5008 1125.66 83.1247L1172.48 82.2785C1172.85 92.8088 1174.08 108.416 1176.15 129.101C1176.15 129.665 1176.24 130.417 1176.43 131.357C1176.62 132.109 1176.71 132.579 1176.71 132.767Z" fill="white"/>
<path d="M1022.83 276.618C1022.83 278.31 1021.42 279.156 1018.6 279.156C1016.72 279.156 1015.03 279.062 1013.52 278.874L977.699 278.31L941.878 278.874C940.561 279.062 939.151 279.156 937.647 279.156C933.886 279.156 932.005 278.216 932.005 276.336C932.005 274.267 934.544 273.233 939.621 273.233C956.169 273.045 964.442 271.353 964.442 268.156C964.442 267.968 964.254 267.216 963.878 265.899L961.622 258.284L960.212 254.335C958.519 248.506 954.382 235.625 947.801 215.693H887.44C876.158 245.779 870.516 263.079 870.516 267.592C870.516 270.224 871.645 271.823 873.901 272.387C874.465 272.575 879.166 272.951 888.004 273.515C893.457 273.703 896.184 274.643 896.184 276.336C896.184 278.216 893.739 279.156 888.85 279.156C880.2 279.156 870.14 278.78 858.67 278.028C855.849 277.84 852.935 277.746 849.926 277.746C846.917 277.746 844.003 277.934 841.182 278.31C839.678 278.498 838.455 278.592 837.515 278.592C834.883 278.592 833.566 277.746 833.566 276.054C833.566 274.361 836.481 273.421 842.31 273.233C848.328 273.045 852.652 272.199 855.285 270.694C857.918 269.002 859.986 265.899 861.49 261.386C885.748 192.188 905.492 136.622 920.723 94.6888C921.099 92.4323 921.851 89.8938 922.98 87.0732L924.39 81.9961C924.954 79.9277 925.706 78.8934 926.646 78.8934C927.21 78.8934 927.681 79.4575 928.057 80.5858C930.501 87.9194 936.048 103.245 944.698 126.562C951.468 144.802 968.297 190.589 995.187 263.925C996.691 268.062 998.572 270.694 1000.83 271.823C1003.27 272.951 1008.16 273.609 1015.5 273.797C1020.38 273.985 1022.83 274.925 1022.83 276.618ZM946.108 209.205C943.1 200.743 938.117 186.734 931.159 167.178L917.62 128.536C909.723 149.22 900.227 176.11 889.132 209.205H946.108Z" fill="white"/>
<path d="M826.822 251.535C826.822 257.472 826.48 267.29 825.795 280.99H822.027C820.657 280.99 817.347 280.762 812.095 280.305C806.843 279.848 800.906 279.62 794.285 279.62L651.804 278.593C647.922 278.593 645.981 277.565 645.981 275.51C645.981 273.912 649.064 272.884 655.229 272.428C663.906 271.971 669.043 271.058 670.642 269.688C672.468 268.089 673.382 263.751 673.382 256.672V64.1864C673.382 55.738 672.468 50.8288 670.642 49.4588C669.043 48.0888 662.992 47.4038 652.489 47.4038C648.151 47.4038 645.981 46.148 645.981 43.6363C645.981 41.5813 647.351 40.5538 650.091 40.5538H653.174C660.709 41.2388 675.665 41.5813 698.042 41.5813C700.097 41.5813 704.093 41.4671 710.029 41.2388C715.966 40.7821 720.875 40.5538 724.757 40.5538H728.524C732.634 40.5538 734.689 41.6954 734.689 43.9788C734.689 45.3488 734.004 46.2621 732.634 46.7188C731.493 46.9471 727.611 47.1755 720.989 47.4038C714.368 47.6322 710.372 48.7738 709.002 50.8288C707.86 52.6555 707.289 58.5922 707.289 68.6389V270.715C713.454 270.943 722.017 271.058 732.977 271.058C759.692 271.058 778.53 269.688 789.49 266.948C800.45 264.207 807.871 259.07 811.752 251.535C815.634 244 817.917 233.839 818.602 221.052C818.831 218.084 820.201 216.6 822.712 216.6C825.681 216.6 827.051 218.312 826.822 221.737L826.48 230.3C826.48 230.756 826.48 231.784 826.48 233.382C826.708 234.981 826.822 236.579 826.822 238.177V251.535Z" fill="white"/>
<path d="M2513.71 160.172C2513.71 163.965 2512.48 167.201 2510.02 169.879C2507.57 172.557 2504.67 173.896 2501.32 173.896C2494.63 173.896 2491.28 170.66 2491.28 164.189C2491.28 158.833 2493.51 156.155 2497.97 156.155C2498.64 156.155 2499.65 156.489 2500.99 157.159C2502.55 157.828 2503.78 158.163 2504.67 158.163C2506.01 158.163 2506.68 157.382 2506.68 155.82C2506.68 152.026 2504.11 148.344 2498.98 144.773C2493.84 141.202 2488.6 139.417 2483.24 139.417C2476.1 139.417 2470.08 141.76 2465.17 146.447C2460.26 150.91 2457.8 156.378 2457.8 162.85C2457.8 168.429 2463.05 183.939 2473.54 209.38C2475.99 215.406 2477.22 222.212 2477.22 229.8C2477.22 244.975 2472.09 257.696 2461.82 267.962C2451.55 278.227 2438.72 283.36 2423.32 283.36C2409.93 283.36 2398.66 279.678 2389.51 272.313C2380.59 264.726 2376.12 255.464 2376.12 244.529C2376.12 238.28 2378.02 233.147 2381.81 229.13C2385.39 225.113 2389.96 223.105 2395.54 223.105C2399.78 223.105 2403.35 224.555 2406.25 227.457C2409.38 230.358 2410.94 233.817 2410.94 237.834C2410.94 244.529 2407.7 247.876 2401.23 247.876C2394.31 247.876 2390.85 245.533 2390.85 240.847C2390.85 239.284 2391.08 237.722 2391.52 236.16C2392.19 234.598 2392.53 233.705 2392.53 233.482C2392.53 231.25 2391.63 230.135 2389.85 230.135C2387.84 230.135 2386.05 231.697 2384.49 234.821C2382.71 237.722 2381.81 240.958 2381.81 244.529C2381.81 253.232 2385.39 260.82 2392.53 267.292C2399.89 273.764 2408.48 277 2418.3 277C2427.45 277 2435.04 274.21 2441.07 268.631C2447.31 263.052 2450.44 256.022 2450.44 247.542C2450.44 241.516 2448.1 231.697 2443.41 218.084C2438.95 205.14 2436.71 194.428 2436.71 185.947C2436.71 171.442 2441.07 159.279 2449.77 149.46C2458.7 139.417 2469.52 134.396 2482.24 134.396C2490.72 134.396 2498.08 136.962 2504.33 142.095C2510.58 147.228 2513.71 153.253 2513.71 160.172Z" fill="white"/>
<path d="M2408.18 74.1403C2408.18 83.5133 2403.83 88.1999 2395.13 88.1999C2390.66 88.1999 2386.98 86.8608 2384.08 84.1828C2381.18 81.2816 2379.73 77.711 2379.73 73.4708C2379.73 64.3209 2384.86 59.746 2395.13 59.746C2403.83 59.746 2408.18 64.5441 2408.18 74.1403ZM2385.08 136.739C2385.08 137.408 2384.53 138.747 2383.41 140.756C2381.85 143.434 2379.28 148.901 2375.71 157.159L2337.21 245.198C2332.08 257.026 2329.51 264.391 2329.51 267.292C2329.51 273.317 2332.64 276.33 2338.89 276.33C2343.13 276.33 2347.93 274.88 2353.28 271.978C2358.86 268.854 2363.1 265.172 2366 260.932C2368.01 258.254 2369.57 256.915 2370.69 256.915C2372.03 256.915 2372.7 257.584 2372.7 258.923C2372.7 261.601 2369.57 265.618 2363.32 270.974C2353.95 279.008 2343.35 283.025 2331.52 283.025C2323.71 283.025 2317.24 281.017 2312.11 277C2307.2 272.983 2304.74 267.85 2304.74 261.601C2304.74 256.022 2307.53 246.984 2313.11 234.486L2347.93 156.824C2349.04 153.03 2350.38 150.129 2351.94 148.12C2352.61 147.228 2352.95 146.447 2352.95 145.777C2352.95 143.769 2348.04 142.43 2338.22 141.76C2336.43 141.314 2335.54 140.533 2335.54 139.417C2335.54 137.408 2336.43 136.404 2338.22 136.404C2338.44 136.404 2340.11 136.627 2343.24 137.074C2346.36 137.52 2351.38 137.743 2358.3 137.743C2367.68 137.743 2374.26 136.962 2378.05 135.4C2380.29 134.507 2381.85 134.061 2382.74 134.061C2384.3 134.061 2385.08 134.953 2385.08 136.739Z" fill="white"/>
<path d="M2332.14 44.3475C2332.14 44.7939 2331.58 46.3561 2330.46 49.0341C2329.79 50.8194 2328.68 53.4974 2327.12 57.0681L2252.13 240.177C2246.55 253.79 2243.76 262.605 2243.76 266.622C2243.76 272.648 2247.78 275.661 2255.81 275.661C2263.85 275.661 2271.88 270.974 2279.92 261.601C2283.26 257.584 2285.38 255.576 2286.28 255.576C2287.84 255.576 2288.62 256.357 2288.62 257.919C2288.62 260.82 2284.94 265.507 2277.57 271.979C2269.09 279.566 2258.16 283.36 2244.77 283.36C2226.47 283.36 2217.32 276.553 2217.32 262.94C2217.32 258.477 2220.11 249.439 2225.69 235.825L2300.67 53.0511C2301.34 51.7121 2301.68 50.931 2301.68 50.7078C2301.68 48.6993 2299.56 47.6951 2295.31 47.6951C2285.5 47.6951 2280.59 46.8024 2280.59 45.0171C2280.59 43.6781 2281.59 43.0085 2283.6 43.0085C2285.61 43.0085 2288.62 43.1201 2292.64 43.3433C2296.88 43.5665 2300 43.6781 2302.01 43.6781C2311.61 43.6781 2318.75 43.2317 2323.43 42.339C2325.89 41.8927 2327.56 41.6696 2328.46 41.6696C2330.91 41.6696 2332.14 42.5622 2332.14 44.3475Z" fill="white"/>
<path d="M2232.97 74.1403C2232.97 83.5133 2228.62 88.1999 2219.92 88.1999C2215.45 88.1999 2211.77 86.8608 2208.87 84.1828C2205.97 81.2816 2204.52 77.711 2204.52 73.4708C2204.52 64.3209 2209.65 59.746 2219.92 59.746C2228.62 59.746 2232.97 64.5441 2232.97 74.1403ZM2209.87 136.739C2209.87 137.408 2209.32 138.747 2208.2 140.756C2206.64 143.434 2204.07 148.901 2200.5 157.159L2162.01 245.198C2156.87 257.026 2154.31 264.391 2154.31 267.292C2154.31 273.317 2157.43 276.33 2163.68 276.33C2167.92 276.33 2172.72 274.88 2178.07 271.978C2183.65 268.854 2187.89 265.172 2190.79 260.932C2192.8 258.254 2194.36 256.915 2195.48 256.915C2196.82 256.915 2197.49 257.584 2197.49 258.923C2197.49 261.601 2194.36 265.618 2188.12 270.974C2178.74 279.008 2168.14 283.025 2156.31 283.025C2148.5 283.025 2142.03 281.017 2136.9 277C2131.99 272.983 2129.53 267.85 2129.53 261.601C2129.53 256.022 2132.32 246.984 2137.9 234.486L2172.72 156.824C2173.83 153.03 2175.17 150.129 2176.73 148.12C2177.4 147.228 2177.74 146.447 2177.74 145.777C2177.74 143.769 2172.83 142.43 2163.01 141.76C2161.22 141.314 2160.33 140.533 2160.33 139.417C2160.33 137.408 2161.22 136.404 2163.01 136.404C2163.23 136.404 2164.91 136.627 2168.03 137.074C2171.16 137.52 2176.18 137.743 2183.09 137.743C2192.47 137.743 2199.05 136.962 2202.85 135.4C2205.08 134.507 2206.64 134.061 2207.53 134.061C2209.09 134.061 2209.87 134.953 2209.87 136.739Z" fill="white"/>
<path d="M2115.88 176.909C2115.88 201.904 2104.16 225.894 2080.73 248.881C2057.52 271.644 2033.19 283.025 2007.75 283.025C1995.93 283.025 1985.88 279.901 1977.63 273.652C1969.59 267.18 1965.58 259.481 1965.58 250.554C1965.58 245.421 1968.92 235.156 1975.62 219.757L2046.25 58.4071C2046.92 55.9522 2047.81 53.9437 2048.93 52.3815C2050.04 50.5962 2050.6 49.592 2050.6 49.3688C2050.6 46.9139 2044.46 45.9097 2032.19 46.356C2030.41 46.356 2029.51 45.6865 2029.51 44.3475C2029.51 42.7853 2032.3 42.0043 2037.88 42.0043C2056.4 42.0043 2066.78 41.8927 2069.01 41.6695L2076.04 41H2078.39C2080.17 41 2081.06 41.6695 2081.06 43.0085C2081.06 43.678 2080.73 44.5707 2080.06 45.6865C2077.83 49.034 2075.49 53.7205 2073.03 59.7461L2041.23 137.743C2039 143.099 2035.98 149.348 2032.19 156.489C2033.53 155.15 2034.65 154.146 2035.54 153.476L2044.24 145.442C2052.28 138.078 2062.54 134.396 2075.04 134.396C2086.87 134.396 2096.57 138.413 2104.16 146.447C2111.97 154.481 2115.88 164.635 2115.88 176.909ZM2088.76 163.519C2088.76 148.12 2082.96 140.421 2071.36 140.421C2049.04 140.421 2028.73 162.626 2010.43 207.037L2002.4 226.452C1994.59 245.422 1990.68 258.142 1990.68 264.614C1990.68 273.541 1996.6 278.004 2008.42 278.004C2030.29 278.004 2050.04 261.155 2067.67 227.457C2081.73 200.676 2088.76 179.364 2088.76 163.519Z" fill="white"/>
<path d="M1947.86 188.626C1947.86 214.736 1935.92 238.28 1912.04 259.258C1893.3 275.773 1873.77 284.03 1853.46 284.03C1839.63 284.03 1828.24 279.232 1819.32 269.635C1810.39 260.039 1805.93 247.653 1805.93 232.478C1805.93 219.534 1809.61 206.256 1816.97 192.643C1824.34 179.029 1834.16 167.425 1846.43 157.828C1865.62 142.876 1884.15 135.4 1902 135.4C1915.61 135.4 1926.66 140.31 1935.14 150.129C1943.62 159.949 1947.86 172.781 1947.86 188.626ZM1922.09 166.867C1922.09 149.906 1914.5 141.426 1899.32 141.426C1880.8 141.426 1864.73 154.704 1851.12 181.261C1838.17 206.702 1831.7 230.581 1831.7 252.898C1831.7 269.635 1839.18 278.004 1854.13 278.004C1872.88 278.004 1888.5 265.953 1901 241.851C1915.06 214.625 1922.09 189.63 1922.09 166.867Z" fill="white"/>
<path d="M1850.27 49.7036C1850.27 52.3816 1847.03 53.609 1840.56 53.3858L1825.49 53.0511C1820.59 53.0511 1817.24 54.7248 1815.45 58.0724L1812.77 65.7716L1807.75 78.4922L1740.8 256.58C1739.69 258.812 1738.01 262.494 1735.78 267.627C1735.78 267.627 1735.11 269.412 1733.77 272.983C1731.76 278.116 1730.2 280.682 1729.09 280.682C1727.08 280.682 1725.4 277.781 1724.07 271.978L1671.17 58.7419L1605.23 241.851C1599.43 257.919 1596.52 266.957 1596.52 268.966C1596.52 271.644 1600.21 272.983 1607.57 272.983H1611.59C1613.37 272.983 1615.16 272.871 1616.94 272.648C1618.73 272.648 1619.62 272.648 1619.62 272.648C1627.21 272.648 1631 273.764 1631 275.995C1631 278.227 1629.33 279.343 1625.98 279.343C1624.42 279.343 1621.3 279.231 1616.61 279.008C1607.24 278.562 1597.86 278.339 1588.49 278.339C1587.37 278.339 1583.8 278.45 1577.78 278.673C1571.75 278.897 1566.29 279.008 1561.38 279.008H1553.68C1549.88 279.008 1547.99 278.116 1547.99 276.33C1547.99 274.545 1550.66 273.317 1556.02 272.648H1560.37C1561.49 272.648 1565.5 272.425 1572.42 271.978C1579.34 271.532 1584.03 269.412 1586.48 265.618C1587.37 263.61 1588.71 260.485 1590.5 256.245L1596.86 239.508L1662.47 58.0724C1662.92 57.1797 1663.36 56.287 1663.81 55.3943C1663.81 53.609 1660.69 52.7163 1654.44 52.7163C1643.72 52.7163 1637.25 52.8279 1635.02 53.0511H1629.67C1625.2 53.0511 1622.97 51.8237 1622.97 49.3688C1622.97 46.6908 1624.98 45.3518 1629 45.3518C1630.11 45.3518 1632.68 45.4634 1636.69 45.6865C1644.73 46.1329 1657 46.3561 1673.52 46.3561C1686.24 46.3561 1694.83 46.1329 1699.29 45.6865L1745.49 224.779L1799.38 78.1574C1804.07 65.4369 1806.41 57.9608 1806.41 55.7291C1806.41 53.7206 1804.85 52.7163 1801.73 52.7163C1802.4 52.7163 1798.83 52.8279 1791.02 53.0511L1779.3 53.3858C1774.61 53.609 1772.27 52.6047 1772.27 50.3731C1772.27 47.6951 1774.61 46.3561 1779.3 46.3561L1819.8 47.0256C1820.92 47.0256 1823.04 47.0256 1826.16 47.0256C1829.51 46.8024 1832.64 46.6908 1835.54 46.6908H1845.91C1848.82 46.6908 1850.27 47.6951 1850.27 49.7036Z" fill="white"/>
<path d="M2563.23 147.135V122.212H2571.06C2572.87 122.212 2574.36 122.545 2575.52 123.21C2576.68 123.867 2577.54 124.772 2578.1 125.924C2578.66 127.076 2578.94 128.386 2578.94 129.854C2578.94 131.323 2578.66 132.625 2578.1 133.761C2577.54 134.897 2576.69 135.789 2575.53 136.438C2574.38 137.079 2572.9 137.4 2571.11 137.4H2564.77V134.674H2571.02C2572.25 134.674 2573.25 134.479 2574 134.089C2574.77 133.7 2575.32 133.148 2575.66 132.434C2576 131.712 2576.18 130.852 2576.18 129.854C2576.18 128.857 2576 127.984 2575.66 127.238C2575.31 126.492 2574.75 125.916 2573.99 125.51C2573.23 125.096 2572.22 124.889 2570.97 124.889H2566.04V147.135H2563.23ZM2574.14 135.939L2579.84 147.135H2576.58L2570.97 135.939H2574.14Z" fill="white"/>
<path d="M2591.27 134.154C2591.27 122.445 2581.97 112.953 2570.5 112.953C2559.03 112.953 2549.73 122.445 2549.73 134.154C2549.73 145.864 2559.03 155.356 2570.5 155.356V159.597C2556.73 159.597 2545.58 148.206 2545.58 134.154C2545.58 120.103 2556.73 108.712 2570.5 108.712C2584.26 108.712 2595.42 120.103 2595.42 134.154C2595.42 148.206 2584.26 159.597 2570.5 159.597V155.356C2581.97 155.356 2591.27 145.864 2591.27 134.154Z" fill="white"/>
</svg>
