<svg width="1868" height="244" viewBox="0 0 1868 244" fill="none" xmlns="http://www.w3.org/2000/svg">
<path d="M877.936 229.577C877.936 237.474 871.355 241.423 858.192 241.423C843.525 241.423 832.054 235.312 823.781 223.089C820.208 217.824 817.857 212.747 816.729 207.858C815.789 202.969 814.285 190.558 812.216 170.626C811.088 158.592 807.233 150.13 800.652 145.241C794.07 140.164 783.352 137.437 768.497 137.061V225.91C768.497 229.671 771.505 232.021 777.523 232.962C779.215 233.15 783.54 233.338 790.498 233.526C792.942 233.526 794.164 234.278 794.164 235.782C794.164 237.474 792.566 238.321 789.369 238.321H785.985C784.292 238.133 776.112 238.039 761.445 238.039C758.625 238.039 753.83 238.133 747.06 238.321C740.479 238.321 736.154 238.321 734.085 238.321H723.085C718.948 238.321 716.88 237.474 716.88 235.782C716.88 234.466 719.606 233.714 725.059 233.526C733.897 233.338 738.692 232.209 739.445 230.141C740.197 229.201 740.573 225.534 740.573 219.141V63.4432C740.573 55.9216 739.727 51.4087 738.034 49.9043C736.53 48.4 731.735 47.5538 723.649 47.3658C718.948 47.3658 716.598 46.5196 716.598 44.8273C716.598 42.9469 718.102 42.0067 721.111 42.0067C721.675 42.0067 722.521 42.1007 723.649 42.2887L761.163 43.1349C764.924 43.1349 770.189 43.0409 776.959 42.8528C784.48 42.4768 789.745 42.2887 792.754 42.2887C810.242 42.2887 824.063 46.2376 834.217 54.1353C844.559 61.8449 849.73 72.3752 849.73 85.726C849.73 98.8888 844.465 109.795 833.935 118.445C823.405 126.907 809.113 131.89 791.062 133.394C789.369 133.582 788.429 133.864 788.241 134.24C788.241 134.993 789.181 135.369 791.062 135.369C810.806 138.753 824.345 145.711 831.678 156.241C839.2 166.583 844.183 185.387 846.627 212.653C848.132 228.072 853.397 235.782 862.423 235.782C865.243 235.782 866.654 235.218 866.654 234.09C866.654 233.902 866.56 233.714 866.372 233.526C865.432 231.457 864.961 229.765 864.961 228.449C864.961 224.5 867.03 222.525 871.167 222.525C875.68 222.525 877.936 224.876 877.936 229.577ZM819.55 88.2646C819.55 61.3748 807.891 47.9299 784.574 47.9299C778.369 47.9299 774.138 48.7761 771.881 50.4685C769.625 52.1608 768.497 55.1695 768.497 59.4944V131.138C786.549 131.326 799.523 128.035 807.421 121.266C815.507 114.496 819.55 103.496 819.55 88.2646Z" fill="white"/>
<path d="M699.101 192.345C699.101 193.097 698.913 197.704 698.536 206.166C698.16 214.627 697.972 222.713 697.972 230.423V239.731C679.544 238.791 643.065 238.321 588.533 238.321C581.951 238.321 575.464 238.415 569.071 238.603C562.677 238.603 558.352 238.603 556.096 238.603H553.275C549.703 238.603 547.916 237.756 547.916 236.064C547.916 234.936 548.48 234.278 549.609 234.09C550.173 234.09 553.745 233.808 560.327 233.243C565.216 232.867 568.131 231.833 569.071 230.141C570.199 228.448 570.763 224.029 570.763 216.884V58.3661C570.763 52.9129 569.917 49.7162 568.225 48.776C566.72 47.6477 561.643 47.0836 552.993 47.0836C549.985 47.0836 548.48 46.2374 548.48 44.5451C548.48 42.8527 550.549 42.0065 554.686 42.0065L602.918 42.2886C604.61 42.2886 615.235 42.1946 634.791 42.0065C654.347 42.0065 667.51 42.0065 674.279 42.0065C679.92 42.0065 685.092 41.6305 689.793 40.8783C690.169 48.964 691.015 60.1524 692.331 74.4435L693.459 86.5721C693.647 87.5123 693.741 88.7345 693.741 90.2389C693.741 92.1193 692.895 93.0595 691.203 93.0595C689.134 93.0595 687.63 90.709 686.69 86.008C683.117 69.0843 677.288 58.3661 669.202 53.8531C663.185 50.4684 647.39 48.776 621.816 48.776H598.687V131.42H605.457C626.517 131.42 639.304 129.821 643.817 126.625C648.518 123.428 651.714 114.12 653.407 98.7007C653.783 94.7518 654.817 92.7774 656.509 92.7774C658.578 92.7774 659.612 94.4698 659.612 97.8545C659.612 101.239 659.424 106.222 659.048 112.804C658.672 119.385 658.484 124.368 658.484 127.753C658.484 147.873 658.86 161.694 659.612 169.216C659.8 171.096 659.894 172.695 659.894 174.011C659.894 176.455 658.86 177.678 656.792 177.678C655.475 177.678 654.535 176.925 653.971 175.421C653.595 173.729 652.843 168.464 651.714 159.626C650.21 148.531 645.603 141.668 637.894 139.035C634.509 137.907 625.671 137.343 611.38 137.343H598.687V232.115C640.056 232.115 664.313 231.269 671.459 229.577C683.869 226.756 690.921 214.722 692.613 193.473C692.989 188.772 694.212 186.421 696.28 186.421C698.16 186.421 699.101 188.396 699.101 192.345Z" fill="white"/>
<path d="M530.728 92.2136C530.728 94.6581 529.6 95.8804 527.344 95.8804C525.087 95.8804 523.489 93.4359 522.548 88.5468C522.172 85.1621 521.796 81.7774 521.42 78.3926C520.104 71.6232 517.942 65.888 514.933 61.187C510.984 54.9816 504.497 51.0328 495.471 49.3404C489.641 48.2122 484.94 47.7421 481.368 47.9301C472.53 48.3062 467.171 48.5883 465.29 48.7763V218.859C465.29 225.628 467.077 229.859 470.649 231.551C472.53 232.492 477.795 233.056 486.445 233.244C488.701 233.432 489.829 234.278 489.829 235.782C489.829 237.475 488.325 238.321 485.317 238.321C483.812 238.321 482.496 238.227 481.368 238.039C470.085 237.663 462.094 237.475 457.393 237.475C451.187 237.475 445.358 237.569 439.905 237.757C434.452 237.945 427.494 238.039 419.032 238.039C414.707 238.039 412.545 237.287 412.545 235.782C412.545 234.09 416.588 233.15 424.674 232.962C430.503 232.962 434.264 231.739 435.956 229.295C436.896 227.791 437.366 223.936 437.366 217.73V48.7763C418.75 48.9643 407.186 49.9046 402.673 51.5969C390.826 55.9218 383.869 67.4863 381.8 86.2903C381.236 91.9315 379.92 94.7521 377.852 94.7521C375.595 94.7521 374.467 92.7777 374.467 88.8289C374.467 86.7604 374.561 84.692 374.749 82.6236L375.313 76.1362C375.877 67.4863 376.723 56.1099 377.852 42.0069H390.544L448.085 42.853C454.854 43.0411 465.384 42.9471 479.675 42.571L526.497 41.7248C526.873 52.255 528.096 67.8624 530.164 88.5468C530.164 89.1109 530.258 89.8631 530.446 90.8033C530.634 91.5555 530.728 92.0256 530.728 92.2136Z" fill="white"/>
<path d="M376.847 236.064C376.847 237.756 375.437 238.603 372.617 238.603C370.736 238.603 369.044 238.509 367.539 238.32L331.718 237.756L295.896 238.32C294.58 238.509 293.17 238.603 291.665 238.603C287.904 238.603 286.024 237.662 286.024 235.782C286.024 233.714 288.563 232.679 293.64 232.679C310.187 232.491 318.461 230.799 318.461 227.602C318.461 227.414 318.273 226.662 317.897 225.346L315.64 217.73L314.23 213.781C312.538 207.952 308.401 195.071 301.819 175.139H241.458C230.176 205.225 224.535 222.525 224.535 227.038C224.535 229.671 225.663 231.269 227.92 231.833C228.484 232.021 233.185 232.397 242.023 232.961C247.476 233.149 250.202 234.09 250.202 235.782C250.202 237.662 247.758 238.603 242.869 238.603C234.219 238.603 224.159 238.226 212.688 237.474C209.868 237.286 206.953 237.192 203.944 237.192C200.936 237.192 198.021 237.38 195.201 237.756C193.696 237.944 192.474 238.038 191.534 238.038C188.901 238.038 187.585 237.192 187.585 235.5C187.585 233.808 190.5 232.867 196.329 232.679C202.346 232.491 206.671 231.645 209.304 230.141C211.936 228.448 214.005 225.346 215.509 220.833C239.766 151.634 259.51 96.0681 274.742 54.1351C275.118 51.8786 275.87 49.3401 276.998 46.5195L278.408 41.4424C278.973 39.3739 279.725 38.3397 280.665 38.3397C281.229 38.3397 281.699 38.9038 282.075 40.0321C284.52 47.3656 290.067 62.6909 298.717 86.0079C305.486 104.248 322.316 150.036 349.206 223.371C350.71 227.508 352.59 230.141 354.847 231.269C357.291 232.397 362.18 233.055 369.514 233.243C374.403 233.431 376.847 234.372 376.847 236.064ZM300.127 168.652C297.118 160.19 292.135 146.181 285.178 126.625L271.639 87.9823C263.741 108.667 254.245 135.557 243.151 168.652H300.127Z" fill="white"/>
<path d="M180.841 210.981C180.841 216.918 180.499 226.736 179.814 240.436H176.046C174.676 240.436 171.365 240.208 166.113 239.751C160.862 239.295 154.925 239.066 148.303 239.066L5.82253 238.039C1.94084 238.039 0 237.011 0 234.956C0 233.358 3.08252 232.331 9.24755 231.874C17.9243 231.417 23.0618 230.504 24.6601 229.134C26.4868 227.535 27.4001 223.197 27.4001 216.119V23.6327C27.4001 15.1843 26.4868 10.2751 24.6601 8.90512C23.0618 7.53512 17.0109 6.85011 6.50754 6.85011C2.16918 6.85011 0 5.59427 0 3.08258C0 1.02757 1.37001 6.10352e-05 4.11002 6.10352e-05H7.19254C14.7276 0.68507 29.6835 1.02757 52.0603 1.02757C54.1153 1.02757 58.1112 0.913412 64.0479 0.68508C69.9845 0.228404 74.8937 6.10352e-05 78.7754 6.10352e-05H82.543C86.653 6.10352e-05 88.708 1.14173 88.708 3.42507C88.708 4.79509 88.023 5.70843 86.653 6.1651C85.5113 6.39343 81.6296 6.62176 75.0079 6.85011C68.3862 7.07844 64.3904 8.22012 63.0203 10.2751C61.8787 12.1018 61.3078 18.0385 61.3078 28.0852V230.161C67.4729 230.39 76.0354 230.504 86.9955 230.504C113.711 230.504 132.548 229.134 143.508 226.394C154.468 223.654 161.889 218.516 165.771 210.981C169.653 203.446 171.936 193.285 172.621 180.499C172.849 177.53 174.219 176.046 176.731 176.046C179.699 176.046 181.069 177.759 180.841 181.184L180.498 189.746C180.498 190.203 180.498 191.23 180.498 192.829C180.727 194.427 180.841 196.025 180.841 197.624V210.981Z" fill="white"/>
<path d="M1867.72 119.618C1867.72 123.412 1866.5 126.648 1864.04 129.326C1861.59 132.004 1858.69 133.343 1855.34 133.343C1848.64 133.343 1845.3 130.107 1845.3 123.635C1845.3 118.279 1847.53 115.601 1851.99 115.601C1852.66 115.601 1853.67 115.936 1855 116.605C1856.57 117.275 1857.79 117.609 1858.69 117.609C1860.03 117.609 1860.7 116.828 1860.7 115.266C1860.7 111.472 1858.13 107.79 1853 104.219C1847.86 100.649 1842.62 98.8633 1837.26 98.8633C1830.12 98.8633 1824.1 101.207 1819.19 105.893C1814.28 110.356 1811.82 115.824 1811.82 122.296C1811.82 127.875 1817.07 143.385 1827.55 168.826C1830.01 174.852 1831.24 181.658 1831.24 189.246C1831.24 204.422 1826.1 217.142 1815.84 227.408C1805.57 237.674 1792.74 242.806 1777.34 242.806C1763.95 242.806 1752.68 239.124 1743.53 231.76C1734.61 224.172 1730.14 214.91 1730.14 203.975C1730.14 197.726 1732.04 192.594 1735.83 188.577C1739.4 184.56 1743.98 182.551 1749.56 182.551C1753.8 182.551 1757.37 184.002 1760.27 186.903C1763.39 189.804 1764.96 193.263 1764.96 197.28C1764.96 203.975 1761.72 207.323 1755.25 207.323C1748.33 207.323 1744.87 204.979 1744.87 200.293C1744.87 198.731 1745.09 197.169 1745.54 195.606C1746.21 194.044 1746.54 193.152 1746.54 192.928C1746.54 190.697 1745.65 189.581 1743.87 189.581C1741.86 189.581 1740.07 191.143 1738.51 194.267C1736.73 197.169 1735.83 200.404 1735.83 203.975C1735.83 212.679 1739.4 220.266 1746.54 226.738C1753.91 233.21 1762.5 236.446 1772.32 236.446C1781.47 236.446 1789.06 233.656 1795.08 228.077C1801.33 222.498 1804.46 215.468 1804.46 206.988C1804.46 200.962 1802.11 191.143 1797.43 177.53C1792.96 164.586 1790.73 153.874 1790.73 145.394C1790.73 130.888 1795.08 118.725 1803.79 108.906C1812.71 98.8633 1823.54 93.842 1836.26 93.842C1844.74 93.842 1852.1 96.4084 1858.35 101.541C1864.6 106.674 1867.72 112.7 1867.72 119.618Z" fill="white"/>
<path d="M1762.2 33.5866C1762.2 42.9596 1757.85 47.6461 1749.14 47.6461C1744.68 47.6461 1741 46.3071 1738.1 43.6291C1735.2 40.7279 1733.75 37.1573 1733.75 32.9171C1733.75 23.7672 1738.88 19.1923 1749.14 19.1923C1757.85 19.1923 1762.2 23.9904 1762.2 33.5866ZM1739.1 96.1851C1739.1 96.8546 1738.54 98.1936 1737.43 100.202C1735.87 102.88 1733.3 108.348 1729.73 116.605L1691.23 204.645C1686.1 216.472 1683.53 223.837 1683.53 226.738C1683.53 232.764 1686.66 235.776 1692.91 235.776C1697.15 235.776 1701.94 234.326 1707.3 231.425C1712.88 228.3 1717.12 224.618 1720.02 220.378C1722.03 217.7 1723.59 216.361 1724.71 216.361C1726.05 216.361 1726.72 217.03 1726.72 218.369C1726.72 221.047 1723.59 225.064 1717.34 230.42C1707.97 238.454 1697.37 242.471 1685.54 242.471C1677.73 242.471 1671.26 240.463 1666.13 236.446C1661.22 232.429 1658.76 227.296 1658.76 221.047C1658.76 215.468 1661.55 206.43 1667.13 193.932L1701.94 116.27C1703.06 112.476 1704.4 109.575 1705.96 107.567C1706.63 106.674 1706.97 105.893 1706.97 105.223C1706.97 103.215 1702.06 101.876 1692.24 101.206C1690.45 100.76 1689.56 99.9789 1689.56 98.8631C1689.56 96.8546 1690.45 95.8503 1692.24 95.8503C1692.46 95.8503 1694.13 96.0735 1697.26 96.5198C1700.38 96.9662 1705.4 97.1893 1712.32 97.1893C1721.69 97.1893 1728.28 96.4082 1732.07 94.8461C1734.3 93.9534 1735.87 93.5071 1736.76 93.5071C1738.32 93.5071 1739.1 94.3997 1739.1 96.1851Z" fill="white"/>
<path d="M1686.16 3.79384C1686.16 4.24018 1685.6 5.80235 1684.48 8.48035C1683.81 10.2657 1682.7 12.9437 1681.13 16.5144L1606.15 199.623C1600.57 213.237 1597.78 222.052 1597.78 226.069C1597.78 232.094 1601.8 235.107 1609.83 235.107C1617.87 235.107 1625.9 230.421 1633.93 221.047C1637.28 217.03 1639.4 215.022 1640.3 215.022C1641.86 215.022 1642.64 215.803 1642.64 217.365C1642.64 220.266 1638.96 224.953 1631.59 231.425C1623.11 239.012 1612.18 242.806 1598.79 242.806C1580.49 242.806 1571.34 236 1571.34 222.386C1571.34 217.923 1574.13 208.885 1579.71 195.272L1654.69 12.4974C1655.36 11.1584 1655.69 10.3773 1655.69 10.1541C1655.69 8.14561 1653.57 7.14135 1649.33 7.14135C1639.51 7.14135 1634.6 6.24869 1634.6 4.46336C1634.6 3.12434 1635.61 2.45483 1637.62 2.45483C1639.63 2.45483 1642.64 2.56641 1646.66 2.78959C1650.9 3.01276 1654.02 3.12434 1656.03 3.12434C1665.62 3.12434 1672.77 2.678 1677.45 1.78533C1679.91 1.339 1681.58 1.11584 1682.47 1.11584C1684.93 1.11584 1686.16 2.00851 1686.16 3.79384Z" fill="white"/>
<path d="M1586.99 33.5866C1586.99 42.9596 1582.64 47.6461 1573.94 47.6461C1569.47 47.6461 1565.79 46.3071 1562.89 43.6291C1559.99 40.7279 1558.54 37.1573 1558.54 32.9171C1558.54 23.7672 1563.67 19.1923 1573.94 19.1923C1582.64 19.1923 1586.99 23.9904 1586.99 33.5866ZM1563.89 96.1851C1563.89 96.8546 1563.34 98.1936 1562.22 100.202C1560.66 102.88 1558.09 108.348 1554.52 116.605L1516.02 204.645C1510.89 216.472 1508.32 223.837 1508.32 226.738C1508.32 232.764 1511.45 235.776 1517.7 235.776C1521.94 235.776 1526.74 234.326 1532.09 231.425C1537.67 228.3 1541.91 224.618 1544.81 220.378C1546.82 217.7 1548.38 216.361 1549.5 216.361C1550.84 216.361 1551.51 217.03 1551.51 218.369C1551.51 221.047 1548.38 225.064 1542.13 230.42C1532.76 238.454 1522.16 242.471 1510.33 242.471C1502.52 242.471 1496.05 240.463 1490.92 236.446C1486.01 232.429 1483.55 227.296 1483.55 221.047C1483.55 215.468 1486.34 206.43 1491.92 193.932L1526.74 116.27C1527.85 112.476 1529.19 109.575 1530.75 107.567C1531.42 106.674 1531.76 105.893 1531.76 105.223C1531.76 103.215 1526.85 101.876 1517.03 101.206C1515.24 100.76 1514.35 99.9789 1514.35 98.8631C1514.35 96.8546 1515.24 95.8503 1517.03 95.8503C1517.25 95.8503 1518.93 96.0735 1522.05 96.5198C1525.17 96.9662 1530.2 97.1893 1537.11 97.1893C1546.49 97.1893 1553.07 96.4082 1556.86 94.8461C1559.1 93.9534 1560.66 93.5071 1561.55 93.5071C1563.11 93.5071 1563.89 94.3997 1563.89 96.1851Z" fill="white"/>
<path d="M1469.9 136.355C1469.9 161.35 1458.18 185.341 1434.75 208.327C1411.54 231.09 1387.21 242.472 1361.77 242.472C1349.94 242.472 1339.9 239.347 1331.64 233.099C1323.61 226.627 1319.59 218.927 1319.59 210.001C1319.59 204.868 1322.94 194.602 1329.64 179.204L1400.27 17.8534C1400.94 15.3985 1401.83 13.39 1402.95 11.8278C1404.06 10.0425 1404.62 9.03824 1404.62 8.81507C1404.62 6.36023 1398.48 5.35598 1386.21 5.80232C1384.42 5.80232 1383.53 5.13281 1383.53 3.7938C1383.53 2.23163 1386.32 1.45055 1391.9 1.45055C1410.42 1.45055 1420.8 1.33897 1423.03 1.11581L1430.06 0.446289H1432.4C1434.19 0.446289 1435.08 1.11579 1435.08 2.4548C1435.08 3.1243 1434.75 4.01697 1434.08 5.1328C1431.85 8.48031 1429.5 13.1668 1427.05 19.1924L1395.25 97.1894C1393.02 102.545 1390 108.794 1386.21 115.936C1387.55 114.597 1388.66 113.592 1389.56 112.923L1398.26 104.889C1406.29 97.5242 1416.56 93.8419 1429.06 93.8419C1440.89 93.8419 1450.59 97.8589 1458.18 105.893C1465.99 113.927 1469.9 124.081 1469.9 136.355ZM1442.78 122.965C1442.78 107.567 1436.98 99.8675 1425.38 99.8675C1403.06 99.8675 1382.75 122.073 1364.45 166.483L1356.42 185.899C1348.61 204.868 1344.7 217.588 1344.7 224.06C1344.7 232.987 1350.61 237.45 1362.44 237.45C1384.31 237.45 1404.06 220.601 1421.69 186.903C1435.75 160.123 1442.78 138.81 1442.78 122.965Z" fill="white"/>
<path d="M1301.88 148.072C1301.88 174.183 1289.94 197.727 1266.06 218.704C1247.32 235.219 1227.79 243.476 1207.48 243.476C1193.64 243.476 1182.26 238.678 1173.34 229.082C1164.41 219.486 1159.95 207.1 1159.95 191.924C1159.95 178.981 1163.63 165.702 1170.99 152.089C1178.36 138.476 1188.18 126.871 1200.45 117.275C1219.64 102.323 1238.17 94.8464 1256.02 94.8464C1269.63 94.8464 1280.68 99.7561 1289.16 109.575C1297.64 119.395 1301.88 132.227 1301.88 148.072ZM1276.1 126.313C1276.1 109.352 1268.52 100.872 1253.34 100.872C1234.82 100.872 1218.75 114.15 1205.14 140.707C1192.19 166.148 1185.72 190.027 1185.72 212.344C1185.72 229.082 1193.2 237.45 1208.15 237.45C1226.9 237.45 1242.52 225.399 1255.01 201.297C1269.07 174.071 1276.1 149.076 1276.1 126.313Z" fill="white"/>
<path d="M1204.28 9.14987C1204.28 11.8279 1201.05 13.0553 1194.58 12.8321L1179.51 12.4974C1174.6 12.4974 1171.26 14.1711 1169.47 17.5186L1166.79 25.2179L1161.77 37.9385L1094.82 216.026C1093.71 218.258 1092.03 221.94 1089.8 227.073C1089.8 227.073 1089.13 228.858 1087.79 232.429C1085.78 237.562 1084.22 240.128 1083.1 240.128C1081.1 240.128 1079.42 237.227 1078.08 231.425L1025.19 18.1882L959.247 201.297C953.445 217.365 950.543 226.403 950.543 228.412C950.543 231.09 954.226 232.429 961.59 232.429H965.607C967.392 232.429 969.178 232.317 970.963 232.094C972.749 232.094 973.641 232.094 973.641 232.094C981.229 232.094 985.023 233.21 985.023 235.442C985.023 237.673 983.349 238.789 980.001 238.789C978.439 238.789 975.315 238.678 970.628 238.455C961.255 238.008 951.882 237.785 942.509 237.785C941.393 237.785 937.823 237.897 931.797 238.12C925.772 238.343 920.304 238.455 915.394 238.455H907.695C903.901 238.455 902.004 237.562 902.004 235.777C902.004 233.991 904.682 232.764 910.038 232.094H914.39C915.506 232.094 919.523 231.871 926.441 231.425C933.359 230.978 938.046 228.858 940.501 225.064C941.393 223.056 942.732 219.932 944.518 215.691L950.878 198.954L1016.49 17.5186C1016.94 16.626 1017.38 15.7333 1017.83 14.8406C1017.83 13.0553 1014.7 12.1626 1008.46 12.1626C997.743 12.1626 991.271 12.2742 989.04 12.4974H983.684C979.22 12.4974 976.989 11.27 976.989 8.8151C976.989 6.1371 978.997 4.7981 983.014 4.7981C984.13 4.7981 986.696 4.90967 990.714 5.13284C998.748 5.57918 1011.02 5.80236 1027.54 5.80236C1040.26 5.80236 1048.85 5.57918 1053.31 5.13284L1099.51 184.225L1153.4 37.6037C1158.09 24.8832 1160.43 17.4071 1160.43 15.1754C1160.43 13.1669 1158.87 12.1626 1155.75 12.1626C1156.42 12.1626 1152.84 12.2742 1145.03 12.4974L1133.32 12.8321C1128.63 13.0553 1126.29 12.051 1126.29 9.81936C1126.29 7.14136 1128.63 5.80236 1133.32 5.80236L1173.82 6.47185C1174.94 6.47185 1177.06 6.47185 1180.18 6.47185C1183.53 6.24869 1186.65 6.1371 1189.56 6.1371H1199.93C1202.83 6.1371 1204.28 7.14136 1204.28 9.14987Z" fill="white"/>
</svg>
